<?xml version="1.0" encoding="UTF-8"?>
<svg id="PATTERN" xmlns="http://www.w3.org/2000/svg" xmlns:xlink="http://www.w3.org/1999/xlink" viewBox="0 0 1922.03 1083.62">
  <defs>
    <style>
      .cls-1, .cls-2, .cls-3, .cls-4, .cls-5, .cls-6, .cls-7, .cls-8 {
        fill: none;
      }

      .cls-2 {
        stroke-width: 2.84px;
      }

      .cls-2, .cls-3, .cls-4, .cls-5, .cls-6, .cls-7, .cls-8 {
        stroke: #c6c6c6;
      }

      .cls-2, .cls-3, .cls-4, .cls-6, .cls-7, .cls-8 {
        stroke-miterlimit: 10;
      }

      .cls-3, .cls-4, .cls-5, .cls-6, .cls-7 {
        stroke-width: 2.47px;
      }

      .cls-4 {
        stroke-dasharray: 3.74 3.74;
      }

      .cls-4, .cls-6, .cls-7 {
        stroke-linecap: round;
      }

      .cls-9, .cls-10, .cls-11 {
        fill: #c6c6c6;
      }

      .cls-5 {
        stroke-linejoin: round;
      }

      .cls-12 {
        fill: url(#Nueva_muestra_de_motivo_3);
      }

      .cls-7 {
        stroke-dasharray: 3.74 3.74;
      }

      .cls-13 {
        letter-spacing: 0em;
      }

      .cls-10 {
        font-size: 16.45px;
      }

      .cls-10, .cls-11 {
        font-family: OstrichSans-Heavy, 'OstrichSans Heavy';
        font-weight: 800;
      }

      .cls-14 {
        letter-spacing: 0em;
      }

      .cls-8 {
        stroke-width: 1.5px;
      }

      .cls-11 {
        font-size: 18.13px;
      }
    </style>
    <pattern id="Nueva_muestra_de_motivo_3" data-name="Nueva muestra de motivo 3" x="0" y="0" width="675" height="521.71" patternTransform="translate(1409 587.42)" patternUnits="userSpaceOnUse" viewBox="0 0 675 521.71">
      <g>
        <rect class="cls-1" y="0" width="675" height="521.71"/>
        <path class="cls-2" d="M24.86,568.91c-3.06-2.16-6.1-4.33-9.14-6.51-.24-.17-.76-.29-.5-.75.25-.45.52-.97,1.22-.8,1.76.41,3.52.78,5.28,1.17,1.83.4,3.67.8,5.49,1.22.43.1.72,0,.99-.37,3.69-5.09,7.89-9.74,11.79-14.65.59-.74.61-.75-.16-1.3-3.6-2.56-7.21-5.12-10.82-7.68-3.9-2.78-7.79-5.56-11.7-8.34-2-1.42-4.01-2.83-6.02-4.24-.18-.12-.34-.28-.52-.4-.46-.29-.4-.59-.08-.96.53-.61,1.05-1.24,1.54-1.88.31-.41.65-.5,1.13-.39,3.26.74,6.52,1.46,9.78,2.19.99.22,1.97.43,2.96.67.48.12.81-.02,1.12-.43.89-1.19,1.9-2.26,3.18-2.99.04-.02.08-.06.12-.08.66-.28,1.35-.72,2.03-.14.67.58.34,1.34.16,2.02-.2.78-.59,1.47-1.03,2.13-.29.43-.29.67.3.79,2.8.59,5.59,1.21,8.38,1.85l5.71,1.26c2.28.49,4.56,1.01,6.83,1.53.41.09.62-.12.85-.4,1.28-1.56,2.56-3.12,3.83-4.68,2.76-3.38,5.75-6.5,9.21-9.12.87-.66,1.79-1.26,2.81-1.66.66-.26,1.38-.53,1.99,0,.64.56.49,1.37.33,2.11-.46,2.05-1.45,3.85-2.47,5.64-2.45,4.3-5.53,8.1-8.74,11.78-1.08,1.23-1.41,2.23-.64,3.78.77,1.54,1.25,3.24,1.83,4.88l2.51,6.87c1.03,2.44,1.88,4.97,2.79,7.47.21.57.44.46.76.15.71-.69,1.47-1.29,2.38-1.65.48-.19.98-.32,1.44.06.48.4.46.96.34,1.51-.36,1.63-1.2,3-2.3,4.18-.6.64-.62,1.19-.31,1.99,1.56,4.09,3.05,8.2,4.58,12.3.15.4.1.71-.17,1.03-.54.64-1.08,1.28-1.59,1.94-.33.44-.6.48-.98.06-1.08-1.21-2.18-2.39-3.27-3.59-2.29-2.53-4.57-5.05-6.86-7.58-2.63-2.91-5.26-5.81-7.9-8.72-2.12-2.34-4.26-4.67-6.37-7.02-.43-.48-.61-.11-.84.17-1.84,2.24-3.68,4.48-5.52,6.72-1.59,1.94-3.17,3.89-4.78,5.81-.57.68-1.18,1.32-1.8,1.94-.4.4-.48.77-.27,1.33,1.31,3.46,2.58,6.94,3.86,10.42.1.27.24.54.09.86-.39.84-.79.93-1.42.25-2.3-2.52-4.58-5.04-6.87-7.57-.15-.16-.31-.32-.44-.49l-4.13-3.71Z"/>
        <g>
          <g>
            <path class="cls-3" d="M605.74,482.67l-55.73,25.64c-2.19,1.01-4.82.04-5.83-2.15l-16.66-36.2c-1.01-2.2-.04-4.82,2.15-5.83l55.73-25.64c2.19-1.01,4.82-.04,5.83,2.15l16.66,36.2c1.01,2.19.04,4.82-2.15,5.83Z"/>
            <g>
              <g>
                <line class="cls-3" x1="534.82" y1="461.76" x2="555.15" y2="505.95"/>
                <line class="cls-3" x1="539.29" y1="459.71" x2="559.62" y2="503.89"/>
              </g>
              <g>
                <line class="cls-3" x1="575.8" y1="442.91" x2="596.13" y2="487.09"/>
                <line class="cls-3" x1="580.27" y1="440.85" x2="600.6" y2="485.03"/>
              </g>
            </g>
            <path class="cls-3" d="M565.65,447.58l-2.23-4.85c-1.03-2.24-3.63-3.26-5.78-2.27l-8.38,3.86c-2.15.99-3.07,3.63-2.04,5.87l2.23,4.84"/>
          </g>
          <g>
            <path class="cls-3" d="M622.53,440.26c-1.29,3.12-6.81,5.21-10.87,3.31-4.05-1.9-5.1-7.07-3.81-10.19s5.04-2.72,9.09-.82c4.05,1.9,6.87,4.58,5.59,7.7Z"/>
            <path class="cls-3" d="M626.98,442.35c-1.28,3.12,1.02,8.88,5.07,10.78,4.05,1.9,8.33-.78,9.61-3.9,1.29-3.12-1.53-5.8-5.59-7.7-4.05-1.9-7.81-2.3-9.09.82Z"/>
            <path class="cls-8" d="M622.27,440.77s3.43-2.43,4.52,2.12"/>
            <line class="cls-3" x1="607.85" y1="433.39" x2="606.13" y2="432.58"/>
            <line class="cls-3" x1="643.38" y1="450.03" x2="641.66" y2="449.23"/>
            <line class="cls-8" x1="621.71" y1="435.92" x2="630.61" y2="440.09"/>
          </g>
          <path class="cls-9" d="M632.99,324.45l-12.68-13c.29-.77.51-1.55.69-2.34l17.48-4.74-17.71-3.38c-.11-.41-.22-.81-.36-1.22-.14-.4-.3-.8-.47-1.19l11.73-13.68-16.62,7.19c-.63-.52-1.3-1-2-1.42l1.81-18.06-9.34,15.73c-.28-.02-.57-.04-.86-.04-.47,0-.95.02-1.41.07l-9.54-15.63,2.29,18.19c-.63.42-1.23.87-1.79,1.37l-17.12-6.48,12.69,13.01c-.28.76-.5,1.54-.68,2.33l-17.5,4.74,17.72,3.38c.11.41.22.81.36,1.22.14.4.3.8.47,1.19l-11.73,13.68,16.62-7.19c.63.52,1.3.99,2,1.41l-1.81,18.06,9.34-15.73c.28.02.57.04.85.04.47,0,.94-.02,1.41-.07l9.54,15.63-2.28-18.19c.63-.42,1.24-.87,1.8-1.37l17.11,6.48ZM617.77,315.95c.5-.64.97-1.31,1.38-2.02l3.94,4.04-5.32-2.01ZM627.1,304.8l-5.74,1.55c.04-.89,0-1.78-.09-2.67l5.84,1.11ZM618.64,296.16c-.48-.76-1.02-1.47-1.6-2.13l5.46-2.36-3.86,4.5ZM611.16,283.86l-.56,5.61c-.76-.3-1.54-.55-2.33-.73l2.9-4.88ZM597.73,284.25l2.83,4.63c-.37.1-.73.21-1.09.33-.36.13-.71.28-1.06.43l-.68-5.39ZM586.98,292.32l5.33,2.02c-.51.64-.98,1.31-1.39,2.02l-3.95-4.04ZM582.97,305.49l5.75-1.56c-.04.88,0,1.78.09,2.67l-5.84-1.12ZM591.43,314.13c.48.76,1.02,1.47,1.6,2.13l-5.46,2.36,3.86-4.5ZM598.91,326.43l.56-5.61c.76.3,1.54.55,2.34.73l-2.9,4.88ZM612.34,326.04l-2.83-4.63c.37-.1.73-.21,1.09-.33.36-.13.71-.28,1.06-.43l.68,5.39ZM609.79,318.75c-1.42.5-2.89.75-4.39.75-5.97,0-11.35-3.94-13.4-9.79-2.62-7.5,1.09-15.65,8.27-18.16,1.42-.5,2.89-.75,4.39-.75,5.97,0,11.35,3.94,13.4,9.79,1.27,3.64,1.11,7.54-.46,10.98-1.56,3.42-4.34,5.97-7.81,7.19Z"/>
          <g>
            <text class="cls-10" transform="translate(503.4 296.47) scale(.96 1)"><tspan x="0" y="0">n</tspan></text>
            <text class="cls-10" transform="translate(504.66 391.75) scale(.96 1)"><tspan x="0" y="0">s</tspan></text>
            <text class="cls-10" transform="translate(548.63 342.4) scale(.96 1)"><tspan x="0" y="0">e</tspan></text>
            <text class="cls-10" transform="translate(461.12 342.4) scale(.96 1)"><tspan x="0" y="0">w</tspan></text>
          </g>
          <path class="cls-9" d="M517.62,343.85l27.31-5.11-27.31-5.11,11.21-16.77-16.09,11.64-4.95-28.66-4.95,28.66-16.09-11.64,11.21,16.77-27.31,5.11,27.31,5.11-11.21,16.77,16.09-11.64,4.95,28.66,4.95-28.66,16.09,11.64-11.21-16.77ZM515.3,343.03c.98-1.5,1.55-3.3,1.55-5.24,0-1.11-.2-2.16-.54-3.15l21.91,4.1-22.92,4.29ZM499.95,337.8c0-4.5,3.51-8.15,7.83-8.15s7.83,3.65,7.83,8.15-3.51,8.15-7.83,8.15-7.83-3.65-7.83-8.15ZM523.99,321.88l-7.69,11.51-.57-.11c-.66-1.24-1.59-2.31-2.7-3.13l-.05-.3,11.02-7.97ZM511.63,329.31c-1.17-.57-2.47-.9-3.84-.9s-2.67.33-3.84.9l3.84-22.23,3.84,22.23ZM491.58,321.88l11.02,7.97-.05.3c-1.11.82-2.04,1.89-2.7,3.13l-.58.11-7.69-11.51ZM499.26,334.65c-.34.99-.54,2.04-.54,3.15,0,1.94.57,3.74,1.55,5.24l-22.92-4.29,21.91-4.1ZM491.58,355.61l7.69-11.51,2.2.41c.22.22.46.43.7.63l.43,2.49-11.02,7.97ZM503.58,346.1c1.26.68,2.68,1.08,4.2,1.08s2.94-.39,4.2-1.08l-4.2,24.31-4.2-24.31ZM513.4,345.14c.24-.2.48-.41.7-.63l2.2-.41,7.69,11.51-11.02-7.97.43-2.49Z"/>
          <path class="cls-9" d="M634.65,385.22c-3.46-5.8-10.2-9.4-16.73-8.88-.93-4.99-5.74-9.12-10.96-9.12-.68,0-1.34.07-1.99.21-1.73-9.01-10.12-16.36-19.04-16.36h-.35c-8.9.19-17.01,7.6-18.63,16.61-2.66-1.4-6.02-1.59-8.79-.45-2.91,1.2-4.64,3.54-4.75,6.24-.22-.02-.36-.02-.37-.02-.76.01-1.53.16-2.28.44-1.45.54-2.78,1.54-3.75,2.83-2.3,3.07-2.42,5.39-2.42,8.95l.02,1.42h91.16l-1.11-1.86ZM547.05,384.62c.04-2.65.29-4.23,1.92-6.42.68-.91,1.61-1.62,2.63-1.99.49-.18.99-.28,1.45-.29.25,0,1.02.09,1.2.15l2.22,1-.5-2.38c-.56-2.64,1.25-4.41,3.13-5.18.91-.38,1.9-.57,2.93-.57,1.89,0,3.7.64,5.12,1.81l1.85,1.53.16-2.4c.59-8.68,8.14-16.17,16.48-16.35h.3c8.2,0,15.89,7.15,16.81,15.63l.18,1.63,1.52-.62c.79-.32,1.64-.49,2.53-.49,4.34,0,8.46,3.85,8.65,8.08l.06,1.39,1.37-.22c.7-.12,1.42-.17,2.14-.17,4.57,0,9.09,2.25,12.05,5.87h-84.17Z"/>
          <path class="cls-9" d="M655.02,372.41c0-2.51-.09-4.15-1.71-6.31-.68-.91-1.62-1.62-2.64-2-.53-.2-1.08-.3-1.61-.31,0,0-.11,0-.26.01-.08-1.9-1.3-3.56-3.35-4.4-1.96-.81-4.32-.67-6.21.32-1.15-6.36-6.87-11.59-13.15-11.72h-.25c-6.29,0-12.22,5.19-13.44,11.55-.46-.1-.92-.15-1.4-.15-3.56,0-6.85,2.72-7.65,6.09.23.76.49,1.5.79,2.22l.72.12.04-.98c.13-2.98,3.04-5.7,6.1-5.7.62,0,1.22.12,1.78.34l1.07.44.12-1.15c.64-5.98,6.08-11.03,11.86-11.03h.21c5.89.13,11.21,5.41,11.63,11.54l.11,1.69,1.31-1.08c1-.82,2.28-1.28,3.61-1.28.72,0,1.42.13,2.06.4,1.33.55,2.6,1.79,2.21,3.66l-.36,1.68,1.57-.71c.13-.04.68-.11.85-.11.32,0,.67.07,1.02.2.71.26,1.37.76,1.85,1.41,1.16,1.55,1.33,2.66,1.36,4.53h-38.5c.22.55.38,1.17.59,1.74h39.64v-1Z"/>
          <g>
            <path class="cls-7" d="M779.74,394.95c-26.94,10.87-53.85,21.98-79.09,36.34-22.58,12.85-44,28.46-61.32,47.86-9.41,10.53-17.48,22.25-23.98,34.79"/>
            <path class="cls-6" d="M614.5,515.6c-.28.55-.55,1.1-.82,1.66"/>
          </g>
          <g>
            <path class="cls-4" d="M694.82,318.98c-4.37,6-7.27,13.06-8.46,20.38-1.41,8.68,1.4,16.56.5,25.14-1.77,16.74-12.53,31.62-26.24,41.38-37.84,26.95-95.27,22.14-130.41-7.41"/>
            <path class="cls-6" d="M528.78,397.25c-.46-.41-.92-.82-1.38-1.23"/>
          </g>
          <path class="cls-4" d="M521.29,262.62c8.79,19.22,18.88,38.09,32.76,54.02,13.89,15.93,31.91,28.86,52.48,33.73"/>
          <text class="cls-11" transform="translate(653.56 296.21) scale(.96 1)"><tspan x="0" y="0">Holi</tspan><tspan x="0" y="14.41">d</tspan><tspan class="cls-14" x="10.22" y="14.41">a</tspan><tspan class="cls-13" x="18.81" y="14.41">y</tspan><tspan x="27.24" y="14.41">s</tspan></text>
          <g>
            <path class="cls-9" d="M641.2,508.67c-1.18-1.64-2.37-3.28-3.55-4.92-.28-.39-.14-.92.32-1.19.22-.12.43-.25.65-.37.47-.26,1.05-.14,1.3.25,2.59,3.96,5.17,7.91,7.76,11.87.26.39.22.89-.08,1.12-.14.11-.28.22-.42.33-.3.24-.76.12-1.04-.27-1.18-1.63-2.36-3.27-3.54-4.9-.67.48-1.34.98-1.99,1.5,1.29,1.61,2.58,3.22,3.88,4.83.31.38.33.9.05,1.18-.13.13-.26.26-.38.38-.27.28-.75.2-1.09-.17-3.34-3.79-6.69-7.59-10.03-11.38-.33-.38-.26-.95.18-1.27.21-.15.41-.3.62-.45.44-.32,1.05-.25,1.35.13,1.3,1.62,2.59,3.23,3.89,4.85.69-.54,1.4-1.05,2.12-1.53Z"/>
            <path class="cls-9" d="M643.73,504.63c-1.52-2.48-1.05-4.53,1.63-5.52,2.72-.97,4.62.08,5.61,2.58.76,1.87,1.52,3.74,2.29,5.61.63,1.56.62,2.63.35,3.49-.3.89-.92,1.41-1.53,1.74-.6.32-1.35.56-2.26.26-.86-.3-1.78-.98-2.72-2.54-1.12-1.87-2.24-3.74-3.37-5.61ZM648.93,509.22c.71,1.31,1.41,1.72,2.16,1.33.74-.38.87-1.13.25-2.48-.87-1.88-1.74-3.75-2.61-5.63-.61-1.33-1.37-1.75-2.38-1.36-1.03.4-1.15,1.22-.45,2.51,1.01,1.88,2.02,3.75,3.03,5.63Z"/>
            <path class="cls-9" d="M661.01,508.47c.08.38-.14.75-.5.83-1.29.31-2.56.69-3.81,1.14-.35.13-.74-.08-.89-.47-1.46-3.96-2.92-7.92-4.38-11.88-.15-.39.13-.8.64-.91.24-.05.48-.1.73-.15.48-.09.98.15,1.1.54,1.11,3.51,2.22,7.03,3.32,10.54.94-.28,1.88-.51,2.84-.71.39-.08.76.17.84.55.04.17.08.34.11.52Z"/>
            <path class="cls-9" d="M663.88,508c.05.37-.22.71-.57.76-.17.03-.34.05-.52.08-.37.06-.72-.19-.79-.56-.73-3.79-1.46-7.58-2.19-11.38-.07-.38.27-.7.78-.71.24,0,.47,0,.71-.01.48,0,.95.29,1,.66.53,3.72,1.05,7.44,1.58,11.16Z"/>
            <path class="cls-9" d="M665.95,508.46c-.37.03-.7-.23-.74-.6-.39-3.66-.77-7.32-1.16-10.98-.04-.37.33-.64.84-.61.86.05,1.71.13,2.56.23,3.02.39,4.32,1.89,4.18,4.03-.09,1.54-.18,3.08-.27,4.63-.15,2.16-1.27,3.16-3.5,3.21-.64.01-1.27.04-1.91.09ZM666.57,498.16c.15,2.82.31,5.64.46,8.47.26,0,.51,0,.77,0,1.04,0,1.48-.51,1.48-1.67,0-1.6.01-3.19.02-4.79,0-1.15-.51-1.79-1.8-1.93-.31-.03-.63-.06-.94-.09Z"/>
            <path class="cls-9" d="M676.55,506.39c-.68-.18-1.37-.34-2.05-.48-.35.77-.69,1.55-1.02,2.34-.11.23-.43.39-.71.36-.18-.02-.36-.04-.55-.06-.45-.05-.73-.4-.61-.77.39-1.14.8-2.25,1.25-3.34.84-2,1.77-3.92,2.79-5.74.13-.21.55-.29.91-.17.18.06.35.12.53.18.36.12.73.46.75.71.48,3.4.74,6.65.8,9.73,0,.35-.38.55-.82.44-.18-.05-.36-.09-.54-.14-.28-.07-.53-.33-.56-.57-.04-.82-.1-1.65-.17-2.49ZM675.2,504.47c.39.09.78.19,1.17.3-.1-.79.03-1.19-.16-2.61-.35.76-.69,1.53-1.01,2.31Z"/>
          </g>
          <text class="cls-11" transform="translate(435.49 392.06) scale(.96 1)"><tspan x="0" y="0">Holid</tspan><tspan class="cls-14" x="40.51" y="0">a</tspan><tspan class="cls-13" x="49.1" y="0">y</tspan><tspan x="57.53" y="0">s</tspan></text>
        </g>
        <g>
          <path class="cls-2" d="M362.36,438.48c-3.06-2.16-6.1-4.33-9.14-6.51-.24-.17-.76-.29-.5-.75.25-.45.52-.97,1.22-.8,1.76.41,3.52.78,5.28,1.17,1.83.4,3.67.8,5.49,1.22.43.1.72,0,.99-.37,3.69-5.09,7.89-9.74,11.79-14.65.59-.74.61-.75-.16-1.3-3.6-2.56-7.21-5.12-10.82-7.68-3.9-2.78-7.79-5.56-11.7-8.34-2-1.42-4.01-2.83-6.02-4.24-.18-.12-.34-.28-.52-.4-.46-.29-.4-.59-.08-.96.53-.61,1.05-1.24,1.54-1.88.31-.41.65-.5,1.13-.39,3.26.74,6.52,1.46,9.78,2.19.99.22,1.97.43,2.96.67.48.12.81-.02,1.12-.43.89-1.19,1.9-2.26,3.18-2.99.04-.02.08-.06.12-.08.66-.28,1.35-.72,2.03-.14.67.58.34,1.34.16,2.02-.2.78-.59,1.47-1.03,2.13-.29.43-.29.67.3.79,2.8.59,5.59,1.21,8.38,1.85l5.71,1.26c2.28.49,4.56,1.01,6.83,1.53.41.09.62-.12.85-.4,1.28-1.56,2.56-3.12,3.83-4.68,2.76-3.38,5.75-6.5,9.21-9.12.87-.66,1.79-1.26,2.81-1.66.66-.26,1.38-.53,1.99,0,.64.56.49,1.37.33,2.11-.46,2.05-1.45,3.85-2.47,5.64-2.45,4.3-5.53,8.1-8.74,11.78-1.08,1.23-1.41,2.23-.64,3.78.77,1.54,1.25,3.24,1.83,4.88l2.51,6.87c1.03,2.44,1.88,4.97,2.79,7.47.21.57.44.46.76.15.71-.69,1.47-1.29,2.38-1.65.48-.19.98-.32,1.44.06.48.4.46.96.34,1.51-.36,1.63-1.2,3-2.3,4.18-.6.64-.62,1.19-.31,1.99,1.56,4.09,3.05,8.2,4.58,12.3.15.4.1.71-.17,1.03-.54.64-1.08,1.28-1.59,1.94-.33.44-.6.48-.98.06-1.08-1.21-2.18-2.39-3.27-3.59-2.29-2.53-4.57-5.05-6.86-7.58-2.63-2.91-5.26-5.81-7.9-8.72-2.12-2.34-4.26-4.67-6.37-7.02-.43-.48-.61-.11-.84.17-1.84,2.24-3.68,4.48-5.52,6.72-1.59,1.94-3.17,3.89-4.78,5.81-.57.68-1.18,1.32-1.8,1.94-.4.4-.48.77-.27,1.33,1.31,3.46,2.58,6.94,3.86,10.42.1.27.24.54.09.86-.39.84-.79.93-1.42.25-2.3-2.52-4.58-5.04-6.87-7.57-.15-.16-.31-.32-.44-.49l-4.13-3.71Z"/>
          <path class="cls-9" d="M295.49,454.87l-12.68-13c.29-.77.51-1.55.69-2.34l17.48-4.74-17.71-3.38c-.11-.41-.22-.81-.36-1.22-.14-.4-.3-.8-.47-1.19l11.73-13.68-16.62,7.19c-.63-.52-1.3-1-2-1.42l1.81-18.06-9.34,15.73c-.28-.02-.57-.04-.86-.04-.47,0-.95.02-1.41.07l-9.54-15.63,2.29,18.19c-.63.42-1.23.87-1.79,1.37l-17.12-6.48,12.69,13.01c-.28.76-.5,1.54-.68,2.33l-17.5,4.74,17.72,3.38c.11.41.22.81.36,1.22.14.4.3.8.47,1.19l-11.73,13.68,16.62-7.19c.63.52,1.3.99,2,1.41l-1.81,18.06,9.34-15.73c.28.02.57.04.85.04.47,0,.94-.02,1.41-.07l9.54,15.63-2.28-18.19c.63-.42,1.24-.87,1.8-1.37l17.11,6.48ZM280.27,446.38c.5-.64.97-1.31,1.38-2.02l3.94,4.04-5.32-2.01ZM289.6,435.23l-5.74,1.55c.04-.89,0-1.78-.09-2.67l5.84,1.11ZM281.14,426.58c-.48-.76-1.02-1.47-1.6-2.13l5.46-2.36-3.86,4.5ZM273.66,414.29l-.56,5.61c-.76-.3-1.54-.55-2.33-.73l2.9-4.88ZM260.23,414.68l2.83,4.63c-.37.1-.73.21-1.09.33-.36.13-.71.28-1.06.43l-.68-5.39ZM249.48,422.75l5.33,2.02c-.51.64-.98,1.31-1.39,2.02l-3.95-4.04ZM245.47,435.92l5.75-1.56c-.04.88,0,1.78.09,2.67l-5.84-1.12ZM253.93,444.56c.48.76,1.02,1.47,1.6,2.13l-5.46,2.36,3.86-4.5ZM261.41,456.86l.56-5.61c.76.3,1.54.55,2.34.73l-2.9,4.88ZM274.84,456.47l-2.83-4.63c.37-.1.73-.21,1.09-.33.36-.13.71-.28,1.06-.43l.68,5.39ZM272.29,449.18c-1.42.5-2.89.75-4.39.75-5.97,0-11.35-3.94-13.4-9.79-2.62-7.5,1.09-15.65,8.27-18.16,1.42-.5,2.89-.75,4.39-.75,5.97,0,11.35,3.94,13.4,9.79,1.27,3.64,1.11,7.54-.46,10.98-1.56,3.42-4.34,5.97-7.81,7.19Z"/>
          <g>
            <path class="cls-5" d="M454.52,504.65h64.35s-7.25,10.97-14.28,15.77h-43.93s-4.83-5.48-6.15-15.77Z"/>
            <polyline class="cls-5" points="506.86 504.65 493.25 487.74 469.09 487.74 469.09 494.44 459.71 494.44 459.71 504.65"/>
            <g>
              <line class="cls-6" x1="491.13" y1="491.84" x2="491.13" y2="493.04"/>
              <line class="cls-6" x1="486.74" y1="491.84" x2="486.74" y2="493.04"/>
              <line class="cls-6" x1="482.34" y1="491.84" x2="482.34" y2="493.04"/>
              <line class="cls-6" x1="477.95" y1="491.84" x2="477.95" y2="493.04"/>
              <line class="cls-6" x1="473.56" y1="491.84" x2="473.56" y2="493.04"/>
            </g>
            <g>
              <line class="cls-6" x1="491.13" y1="497.15" x2="491.13" y2="498.35"/>
              <line class="cls-6" x1="486.74" y1="497.15" x2="486.74" y2="498.35"/>
              <line class="cls-6" x1="482.34" y1="497.15" x2="482.34" y2="498.35"/>
              <line class="cls-6" x1="477.95" y1="497.15" x2="477.95" y2="498.35"/>
              <line class="cls-6" x1="473.56" y1="497.15" x2="473.56" y2="498.35"/>
            </g>
            <line class="cls-6" x1="473.56" y1="487.74" x2="473.56" y2="478.6"/>
            <line class="cls-6" x1="477.95" y1="487.74" x2="477.95" y2="478.6"/>
            <g>
              <path class="cls-9" d="M500.2,510.93c0-1.07.84-1.94,1.87-1.94s1.87.87,1.87,1.94-.84,1.94-1.87,1.94-1.87-.87-1.87-1.94Z"/>
              <path class="cls-9" d="M491.41,510.93c0-1.07.84-1.94,1.87-1.94s1.87.87,1.87,1.94-.84,1.94-1.87,1.94-1.87-.87-1.87-1.94Z"/>
              <path class="cls-9" d="M482.63,510.93c0-1.07.84-1.94,1.87-1.94s1.87.87,1.87,1.94-.84,1.94-1.87,1.94-1.87-.87-1.87-1.94Z"/>
              <path class="cls-9" d="M473.84,510.93c0-1.07.84-1.94,1.87-1.94s1.87.87,1.87,1.94-.84,1.94-1.87,1.94-1.87-.87-1.87-1.94Z"/>
              <path class="cls-9" d="M465.06,510.93c0-1.07.84-1.94,1.87-1.94s1.87.87,1.87,1.94-.83,1.94-1.87,1.94-1.87-.87-1.87-1.94Z"/>
            </g>
          </g>
          <path class="cls-6" d="M497.18,440.14c-16.43,7.31-42.86,7.46-56.31-6.74-7.77-8.2,7.8-10.89,13.01-10.9,6.2,0,12.42,1.77,18.07,4.36,9.8,4.5,18.5,11.39,29.07,14.04,14.51,3.63,32.7-.6,39.3-15.84.37-.86.7-1.77.63-2.7-.07-.94-.65-1.89-1.54-2.08-.78-.16-1.54.29-2.23.71-4.6,2.86-9.46,5.37-14.66,6.69-5.39,1.37-12.37,1.7-17.44-1.04"/>
          <path class="cls-6" d="M505.01,426.64c-.22-7.03-.33-11.51-4.9-16.11-2.52-2.54-5.97-3.91-9.45-4.42-12.26-1.79-21.07,5.15-22.28,19.26"/>
          <path class="cls-6" d="M469.27,420.15c11.64-1.86,23.62-1.35,35.07,1.47"/>
          <path class="cls-6" d="M471.47,426.64c10.99-1.27,21.52-.96,33.56.12"/>
          <g>
            <g>
              <path class="cls-9" d="M374.48,528.35c1.72-1.84,1.42-3.87-.65-6.23-2.08-2.37-3.88-2.74-5.72-1.04-.54.5-1.09,1-1.65,1.49-.31.27-.29.8.05,1.18,3.38,3.85,6.76,7.71,10.14,11.56.34.38.83.45,1.11.14.13-.14.26-.29.39-.43.26-.29.21-.85-.12-1.22-1.4-1.59-2.79-3.18-4.19-4.78.21-.22.43-.45.64-.67ZM369.74,522.95c.8-.77,1.56-.59,2.66.66,1.06,1.21,1.22,2.08.45,2.88-.22.22-.43.44-.65.66-1.04-1.19-2.08-2.37-3.12-3.56.22-.21.45-.42.67-.64Z"/>
              <path class="cls-9" d="M373.24,516.71c-.21-.12-.63-.06-.8.11-.15.16-.31.32-.46.47-.4.41-.24,1.1.32,1.4,2.22,1.19,4.4,2.3,6.55,3.41,1.51,1.73,3.03,3.45,4.54,5.18.31.36.77.38,1.01.06.12-.16.24-.31.35-.47.25-.34.2-.89-.11-1.24-1.49-1.69-2.97-3.39-4.46-5.08-.98-2.46-1.93-4.89-2.86-7.29-.24-.59-.84-.77-1.22-.36-.15.17-.31.34-.46.51-.15.17-.22.62-.14.87.57,1.48,1.16,2.98,1.75,4.49-1.33-.67-2.66-1.35-4.02-2.05Z"/>
              <path class="cls-9" d="M385.79,511.29c-1.21-1.38-2.41-2.75-3.62-4.12-.29-.33-.73-.34-1.01-.02-.13.15-.25.29-.38.44-.27.31-.26.83.04,1.16,2.93,3.34,5.85,6.67,8.78,10.01.29.33.72.32.96-.03.11-.16.23-.33.34-.49.24-.35.2-.89-.08-1.22-1.2-1.37-2.4-2.74-3.6-4.11.47-.62.94-1.24,1.41-1.86,1.18,1.35,2.36,2.69,3.54,4.04.28.32.7.3.94-.05.11-.16.22-.33.34-.49.24-.35.21-.88-.07-1.2-2.79-3.18-5.57-6.35-8.36-9.53-.28-.32-.72-.32-.99,0-.13.15-.25.29-.38.44-.27.31-.26.82.02,1.15,1.19,1.35,2.37,2.7,3.55,4.05-.48.61-.95,1.22-1.43,1.83Z"/>
              <path class="cls-9" d="M392.18,509.4c1.08,1.23,1.98,1.58,2.78,1.52.84-.08,1.45-.69,1.89-1.31.45-.64.86-1.49.85-2.53-.02-.99-.35-2.02-1.38-3.19-1.22-1.39-2.44-2.79-3.67-4.18-1.64-1.87-3.27-2.05-4.79-.34-1.5,1.69-1.29,3.64.44,5.61,1.29,1.47,2.58,2.94,3.87,4.42ZM389.62,503.37c-.88-1-1.03-1.79-.43-2.49.58-.68,1.25-.57,2.13.43,1.24,1.42,2.49,2.83,3.73,4.25.9,1.02,1,1.83.48,2.54-.53.73-1.21.62-2.1-.39-1.27-1.45-2.54-2.9-3.81-4.35Z"/>
              <path class="cls-9" d="M402.6,499.96c-.24-.28-.65-.24-.91.08-.65.8-1.3,1.62-1.94,2.44-2.26-2.57-4.52-5.15-6.78-7.72-.25-.29-.68-.28-.95.01-.14.15-.27.29-.41.44-.28.3-.3.78-.04,1.07,2.57,2.93,5.13,5.85,7.7,8.78.26.29.66.25.91-.09.89-1.2,1.79-2.38,2.71-3.55.26-.33.27-.81.03-1.09-.11-.12-.22-.25-.33-.37Z"/>
              <path class="cls-9" d="M397.86,489.78c-.24-.27-.68-.24-.96.03-.14.13-.28.27-.41.4-.3.29-.34.74-.1,1.01,2.42,2.75,4.83,5.51,7.25,8.26.24.27.64.23.91-.09.12-.15.25-.3.37-.45.25-.3.29-.79.06-1.06-2.37-2.7-4.74-5.4-7.11-8.1Z"/>
              <path class="cls-9" d="M408.24,495.13c1.68-1.82,1.78-3.46.36-5.08-1.01-1.16-2.03-2.31-3.04-3.47-1.41-1.61-3.08-1.77-4.96-.17-.53.46-1.05.92-1.57,1.39-.31.28-.36.71-.13.98,2.34,2.67,4.68,5.33,7.01,8,.23.27.64.23.91-.08.47-.53.94-1.05,1.41-1.57ZM401.72,487.7c.82-.72,1.52-.61,2.27.24,1.04,1.18,2.07,2.36,3.11,3.54.75.85.78,1.58.03,2.37-.19.19-.37.39-.55.58-1.81-2.07-3.63-4.13-5.44-6.2.2-.18.4-.36.6-.54Z"/>
              <path class="cls-9" d="M414.92,488.18c.22.12.61.07.85-.12.16-.12.31-.25.47-.37.39-.3.44-.74.13-.95-2.78-1.73-5.6-3.52-8.47-5.36-.21-.14-.64-.1-.89.08-.12.09-.25.17-.37.26-.25.18-.39.53-.3.76.87,1.94,1.78,3.91,2.71,5.93.51,1.09,1.04,2.18,1.57,3.29.18.36.63.38.99.03.14-.14.29-.27.43-.41.22-.21.33-.59.23-.83-.38-.79-.75-1.58-1.12-2.37.53-.45,1.07-.89,1.62-1.33.72.47,1.44.94,2.16,1.4ZM409.23,484.35c1.2.78,1.45,1.12,2.13,1.55-.3.24-.61.47-.9.72-.41-.76-.82-1.52-1.23-2.27Z"/>
              <path class="cls-9" d="M411.02,479.28c-.17-.07-.59-.02-.8.11-.19.11-.38.23-.57.35-.5.31-.52.78-.08.95,1.77.68,3.54,1.32,5.28,1.96.95,1.09,1.91,2.17,2.86,3.26.2.22.62.21.95-.02.16-.11.32-.22.48-.33.34-.23.46-.6.27-.82-.93-1.06-1.86-2.12-2.79-3.17-.19-1.56-.34-3.08-.45-4.54-.04-.36-.59-.48-1.11-.23-.21.1-.42.2-.63.31-.21.1-.43.38-.42.54.09.93.19,1.88.31,2.85-1.09-.4-2.18-.8-3.28-1.21Z"/>
              <path class="cls-9" d="M420.47,481.44c1.24,1.41,2.8,1.48,4.88.42,2.02-1.01,2.71-2.06,1.75-3.15-.83-.95-2.66-.94-4.44-.91,0,0,.01,0,.02,0-1.32.02-2.64.05-3.1-.48-.47-.54-.23-.98.62-1.31.9-.35,1.6-.2,2.18.46.04.05.08.09.12.14.18.2.64.23,1.06.08.19-.07.39-.14.58-.21.42-.15.62-.42.44-.62-.04-.04-.08-.09-.12-.14-1.08-1.23-2.93-1.56-5.16-.74-2.18.82-2.7,2.07-1.64,3.27.93,1.06,2.73.97,4.49.91,0,0,0,0,0,0,1.3-.05,2.54-.06,2.96.41.47.53.17.91-.64,1.3-.27.13-.61.27-.92.26-.37,0-.75-.14-1.19-.64-.04-.04-.08-.09-.12-.14-.18-.21-.65-.21-1.01-.03-.18.09-.35.18-.53.27-.38.2-.52.53-.34.74.04.05.08.09.12.14Z"/>
            </g>
            <path class="cls-9" d="M416.1,473.64l-7.13-3.78c-.56-.3-.78-1-.48-1.57.3-.56,1-.78,1.57-.48.1.05.19.12.27.2l5.78,5.63Z"/>
            <path class="cls-9" d="M420.93,470.53l-4.1-9.42c-.25-.58.01-1.27.6-1.52.58-.25,1.26.01,1.52.6.03.08.06.16.08.25l1.91,10.1Z"/>
            <path class="cls-9" d="M425.27,471.54l4.57-9.12c.29-.57.98-.8,1.55-.51.57.29.8.98.51,1.55-.04.08-.09.15-.14.22l-6.49,7.87Z"/>
          </g>
          <g>
            <text class="cls-10" transform="translate(165.9 426.9) scale(.96 1)"><tspan x="0" y="0">n</tspan></text>
            <text class="cls-10" transform="translate(167.16 522.18) scale(.96 1)"><tspan x="0" y="0">s</tspan></text>
            <text class="cls-10" transform="translate(211.13 472.82) scale(.96 1)"><tspan x="0" y="0">e</tspan></text>
            <text class="cls-10" transform="translate(123.62 472.82) scale(.96 1)"><tspan x="0" y="0">w</tspan></text>
          </g>
          <path class="cls-9" d="M180.12,474.28l27.31-5.11-27.31-5.11,11.21-16.77-16.09,11.64-4.95-28.66-4.95,28.66-16.09-11.64,11.21,16.77-27.31,5.11,27.31,5.11-11.21,16.77,16.09-11.64,4.95,28.66,4.95-28.66,16.09,11.64-11.21-16.77ZM177.8,473.46c.98-1.5,1.55-3.3,1.55-5.24,0-1.11-.2-2.16-.54-3.15l21.91,4.1-22.92,4.29ZM162.45,468.22c0-4.5,3.51-8.15,7.83-8.15s7.83,3.65,7.83,8.15-3.51,8.15-7.83,8.15-7.83-3.65-7.83-8.15ZM186.49,452.31l-7.69,11.51-.57-.11c-.66-1.24-1.59-2.31-2.7-3.13l-.05-.3,11.02-7.97ZM174.13,459.74c-1.17-.57-2.47-.9-3.84-.9s-2.67.33-3.84.9l3.84-22.23,3.84,22.23ZM154.08,452.31l11.02,7.97-.05.3c-1.11.82-2.04,1.89-2.7,3.13l-.58.11-7.69-11.51ZM161.76,465.08c-.34.99-.54,2.04-.54,3.15,0,1.94.57,3.74,1.55,5.24l-22.92-4.29,21.91-4.1ZM154.08,486.04l7.69-11.51,2.2.41c.22.22.46.43.7.63l.43,2.49-11.02,7.97ZM166.08,476.53c1.26.68,2.68,1.08,4.2,1.08s2.94-.39,4.2-1.08l-4.2,24.31-4.2-24.31ZM175.9,475.57c.24-.2.48-.41.7-.63l2.2-.41,7.69,11.51-11.02-7.97.43-2.49Z"/>
          <path class="cls-9" d="M297.15,515.65c-3.46-5.8-10.2-9.4-16.73-8.88-.93-4.99-5.74-9.12-10.96-9.12-.68,0-1.34.07-1.99.21-1.73-9.01-10.12-16.36-19.04-16.36h-.35c-8.9.19-17.01,7.6-18.63,16.61-2.66-1.4-6.02-1.59-8.79-.45-2.91,1.2-4.64,3.54-4.75,6.24-.22-.02-.36-.02-.37-.02-.76.01-1.53.16-2.28.44-1.45.54-2.78,1.54-3.75,2.83-2.3,3.07-2.42,5.39-2.42,8.95l.02,1.42h91.16l-1.11-1.86ZM209.55,515.05c.04-2.65.29-4.23,1.92-6.42.68-.91,1.61-1.62,2.63-1.99.49-.18.99-.28,1.45-.29.25,0,1.02.09,1.2.15l2.22,1-.5-2.38c-.56-2.64,1.25-4.41,3.13-5.18.91-.38,1.9-.57,2.93-.57,1.89,0,3.7.64,5.12,1.81l1.85,1.53.16-2.4c.59-8.68,8.14-16.17,16.48-16.35h.3c8.2,0,15.89,7.15,16.81,15.63l.18,1.63,1.52-.62c.79-.32,1.64-.49,2.53-.49,4.34,0,8.46,3.85,8.65,8.08l.06,1.39,1.37-.22c.7-.12,1.42-.17,2.14-.17,4.57,0,9.09,2.25,12.05,5.87h-84.17Z"/>
          <path class="cls-9" d="M317.52,502.83c0-2.51-.09-4.15-1.71-6.31-.68-.91-1.62-1.62-2.64-2-.53-.2-1.08-.3-1.61-.31,0,0-.11,0-.26.01-.08-1.9-1.3-3.56-3.35-4.4-1.96-.81-4.32-.67-6.21.32-1.15-6.36-6.87-11.59-13.15-11.72h-.25c-6.29,0-12.22,5.19-13.44,11.55-.46-.1-.92-.15-1.4-.15-3.56,0-6.85,2.72-7.65,6.09.23.76.49,1.5.79,2.22l.72.12.04-.98c.13-2.98,3.04-5.7,6.1-5.7.62,0,1.22.12,1.78.34l1.07.44.12-1.15c.64-5.98,6.08-11.03,11.86-11.03h.21c5.89.13,11.21,5.41,11.63,11.54l.11,1.69,1.31-1.08c1-.82,2.28-1.28,3.61-1.28.72,0,1.42.13,2.06.4,1.33.55,2.6,1.79,2.21,3.66l-.36,1.68,1.57-.71c.13-.04.68-.11.85-.11.32,0,.67.07,1.02.2.71.26,1.37.76,1.85,1.41,1.16,1.55,1.33,2.66,1.36,4.53h-38.5c.22.55.38,1.17.59,1.74h39.64v-1Z"/>
          <g>
            <path class="cls-6" d="M360.88,445.1c-.42.45-.84.91-1.24,1.38"/>
            <path class="cls-4" d="M357.32,449.41c-4.37,6-7.27,13.06-8.46,20.38-1.41,8.68,1.4,16.56.5,25.14-1.77,16.74-12.53,31.62-26.24,41.38-37.84,26.95-95.27,22.14-130.41-7.41"/>
          </g>
          <path class="cls-4" d="M183.79,393.04c8.79,19.22,18.88,38.09,32.76,54.02,13.89,15.93,31.91,28.86,52.48,33.73"/>
          <text class="cls-11" transform="translate(316.06 426.64) scale(.96 1)"><tspan x="0" y="0">Holi</tspan><tspan x="0" y="14.41">d</tspan><tspan class="cls-14" x="10.22" y="14.41">a</tspan><tspan class="cls-13" x="18.81" y="14.41">y</tspan><tspan x="27.24" y="14.41">s</tspan></text>
          <text class="cls-11" transform="translate(97.99 522.49) scale(.96 1)"><tspan x="0" y="0">Holid</tspan><tspan class="cls-14" x="40.51" y="0">a</tspan><tspan class="cls-13" x="49.1" y="0">y</tspan><tspan x="57.53" y="0">s</tspan></text>
        </g>
        <g>
          <path class="cls-2" d="M24.86,308.06c-3.06-2.16-6.1-4.33-9.14-6.51-.24-.17-.76-.29-.5-.75.25-.45.52-.97,1.22-.8,1.76.41,3.52.78,5.28,1.17,1.83.4,3.67.8,5.49,1.22.43.1.72,0,.99-.37,3.69-5.09,7.89-9.74,11.79-14.65.59-.74.61-.75-.16-1.3-3.6-2.56-7.21-5.12-10.82-7.68-3.9-2.78-7.79-5.56-11.7-8.34-2-1.42-4.01-2.83-6.02-4.24-.18-.12-.34-.28-.52-.4-.46-.29-.4-.59-.08-.96.53-.61,1.05-1.24,1.54-1.88.31-.41.65-.5,1.13-.39,3.26.74,6.52,1.46,9.78,2.19.99.22,1.97.43,2.96.67.48.12.81-.02,1.12-.43.89-1.19,1.9-2.26,3.18-2.99.04-.02.08-.06.12-.08.66-.28,1.35-.72,2.03-.14.67.58.34,1.34.16,2.02-.2.78-.59,1.47-1.03,2.13-.29.43-.29.67.3.79,2.8.59,5.59,1.21,8.38,1.85l5.71,1.26c2.28.49,4.56,1.01,6.83,1.53.41.09.62-.12.85-.4,1.28-1.56,2.56-3.12,3.83-4.68,2.76-3.38,5.75-6.5,9.21-9.12.87-.66,1.79-1.26,2.81-1.66.66-.26,1.38-.53,1.99,0,.64.56.49,1.37.33,2.11-.46,2.05-1.45,3.85-2.47,5.64-2.45,4.3-5.53,8.1-8.74,11.78-1.08,1.23-1.41,2.23-.64,3.78.77,1.54,1.25,3.24,1.83,4.88l2.51,6.87c1.03,2.44,1.88,4.97,2.79,7.47.21.57.44.46.76.15.71-.69,1.47-1.29,2.38-1.65.48-.19.98-.32,1.44.06.48.4.46.96.34,1.51-.36,1.63-1.2,3-2.3,4.18-.6.64-.62,1.19-.31,1.99,1.56,4.09,3.05,8.2,4.58,12.3.15.4.1.71-.17,1.03-.54.64-1.08,1.28-1.59,1.94-.33.44-.6.48-.98.06-1.08-1.21-2.18-2.39-3.27-3.59-2.29-2.53-4.57-5.05-6.86-7.58-2.63-2.91-5.26-5.81-7.9-8.72-2.12-2.34-4.26-4.67-6.37-7.02-.43-.48-.61-.11-.84.17-1.84,2.24-3.68,4.48-5.52,6.72-1.59,1.94-3.17,3.89-4.78,5.81-.57.68-1.18,1.32-1.8,1.94-.4.4-.48.77-.27,1.33,1.31,3.46,2.58,6.94,3.86,10.42.1.27.24.54.09.86-.39.84-.79.93-1.42.25-2.3-2.52-4.58-5.04-6.87-7.57-.15-.16-.31-.32-.44-.49l-4.13-3.71Z"/>
          <path class="cls-3" d="M7.43,488.39c.33-2.46.66-4.34,2.1-6.39,1.33-1.9,3.32-3.28,5.31-4.2,4.27-1.99,9.52-1.95,13.55.66.24-6.27,3.98-12.25,9.38-15.04,5.4-2.79,12.24-2.25,17.18,1.34-2.02-9.45,3.63-19.64,12.02-23.84,4.49-2.24,9.73-2.95,14.66-2.43,4.84.51,9.35,3.52,12.62,7.25,4.01,4.58,5.07,10.43,4.79,16.42,5.55.78,9.11,4.94,11.05,7.55,3.71,4.98,6.86,12.84,4.37,19.07l-107.02-.39Z"/>
          <g>
            <path class="cls-5" d="M117.02,374.22h64.35s-7.25,10.97-14.28,15.77h-43.93s-4.83-5.48-6.15-15.77Z"/>
            <polyline class="cls-5" points="169.36 374.22 155.75 357.31 131.59 357.31 131.59 364.01 122.21 364.01 122.21 374.22"/>
            <g>
              <line class="cls-6" x1="153.63" y1="361.41" x2="153.63" y2="362.61"/>
              <line class="cls-6" x1="149.24" y1="361.41" x2="149.24" y2="362.61"/>
              <line class="cls-6" x1="144.84" y1="361.41" x2="144.84" y2="362.61"/>
              <line class="cls-6" x1="140.45" y1="361.41" x2="140.45" y2="362.61"/>
              <line class="cls-6" x1="136.06" y1="361.41" x2="136.06" y2="362.61"/>
            </g>
            <g>
              <line class="cls-6" x1="153.63" y1="366.73" x2="153.63" y2="367.92"/>
              <line class="cls-6" x1="149.24" y1="366.73" x2="149.24" y2="367.92"/>
              <line class="cls-6" x1="144.84" y1="366.73" x2="144.84" y2="367.92"/>
              <line class="cls-6" x1="140.45" y1="366.73" x2="140.45" y2="367.92"/>
              <line class="cls-6" x1="136.06" y1="366.73" x2="136.06" y2="367.92"/>
            </g>
            <line class="cls-6" x1="136.06" y1="357.31" x2="136.06" y2="348.17"/>
            <line class="cls-6" x1="140.45" y1="357.31" x2="140.45" y2="348.17"/>
            <g>
              <path class="cls-9" d="M162.7,380.5c0-1.07.84-1.94,1.87-1.94s1.87.87,1.87,1.94-.84,1.94-1.87,1.94-1.87-.87-1.87-1.94Z"/>
              <path class="cls-9" d="M153.91,380.5c0-1.07.84-1.94,1.87-1.94s1.87.87,1.87,1.94-.84,1.94-1.87,1.94-1.87-.87-1.87-1.94Z"/>
              <path class="cls-9" d="M145.13,380.5c0-1.07.84-1.94,1.87-1.94s1.87.87,1.87,1.94-.84,1.94-1.87,1.94-1.87-.87-1.87-1.94Z"/>
              <path class="cls-9" d="M136.34,380.5c0-1.07.84-1.94,1.87-1.94s1.87.87,1.87,1.94-.84,1.94-1.87,1.94-1.87-.87-1.87-1.94Z"/>
              <path class="cls-9" d="M127.56,380.5c0-1.07.84-1.94,1.87-1.94s1.87.87,1.87,1.94-.83,1.94-1.87,1.94-1.87-.87-1.87-1.94Z"/>
            </g>
          </g>
          <path class="cls-6" d="M159.68,309.71c-16.43,7.31-42.86,7.46-56.31-6.74-7.77-8.2,7.8-10.89,13.01-10.9,6.2,0,12.42,1.77,18.07,4.36,9.8,4.5,18.5,11.39,29.07,14.04,14.51,3.63,32.7-.6,39.3-15.84.37-.86.7-1.77.63-2.7-.07-.94-.65-1.89-1.54-2.08-.78-.16-1.54.29-2.23.71-4.6,2.86-9.46,5.37-14.66,6.69-5.39,1.37-12.37,1.71-17.44-1.04"/>
          <path class="cls-6" d="M167.51,296.22c-.22-7.03-.33-11.51-4.9-16.11-2.52-2.54-5.97-3.91-9.45-4.42-12.26-1.79-21.07,5.15-22.28,19.26"/>
          <path class="cls-6" d="M131.77,289.73c11.64-1.86,23.62-1.35,35.07,1.47"/>
          <path class="cls-6" d="M133.97,296.22c10.99-1.27,21.52-.96,33.56.12"/>
          <g>
            <g>
              <path class="cls-9" d="M13.75,411.08c-1.63-1.86-3.25-3.71-4.88-5.57-.39-.44-1.03-.68-1.46-.54-.2.06-.4.13-.6.19-.43.14-.46.6-.07,1.05,3.93,4.48,7.87,8.97,11.8,13.45.39.45,1.03.67,1.42.5.19-.08.37-.16.55-.24.39-.18.39-.68,0-1.12-1.62-1.85-3.24-3.7-4.86-5.54.74-.31,1.47-.63,2.19-.96,1.6,1.82,3.2,3.65,4.8,5.47.38.44.99.63,1.36.43.17-.1.34-.19.52-.29.37-.21.35-.72-.02-1.15-3.79-4.32-7.59-8.65-11.38-12.97-.38-.43-.99-.63-1.39-.46-.19.08-.37.16-.56.24-.4.17-.42.64-.04,1.08,1.61,1.83,3.21,3.66,4.82,5.49-.72.33-1.46.64-2.21.94Z"/>
              <path class="cls-9" d="M30.79,412.85c.34.26.83.33,1.07.13.16-.12.31-.25.47-.37.38-.31.26-.95-.23-1.36-4.32-3.49-8.72-7.07-13.19-10.73-.33-.28-.87-.37-1.14-.21-.13.08-.27.15-.4.23-.27.15-.33.59-.13.95,1.84,3.04,3.7,6.11,5.58,9.2,1.03,1.67,2.06,3.34,3.1,5.03.34.54,1,.8,1.42.53.17-.11.34-.22.5-.33.26-.17.29-.63.09-.99-.76-1.23-1.52-2.46-2.27-3.68.59-.39,1.17-.79,1.75-1.19,1.14.94,2.27,1.88,3.4,2.81ZM21.79,405.24c1.89,1.56,2.34,2.14,3.41,3.02-.32.21-.64.43-.97.64-.82-1.22-1.63-2.44-2.44-3.65Z"/>
              <path class="cls-9" d="M31.19,403.49c1.88-1.66,1.58-3.69-.6-6.18-2.19-2.5-4.11-3-6.11-1.48-.59.45-1.19.89-1.8,1.32-.34.24-.33.75.03,1.15,3.55,4.05,7.11,8.11,10.67,12.16.35.4.89.51,1.19.24.14-.13.29-.26.43-.39.29-.26.25-.81-.1-1.2-1.47-1.68-2.94-3.35-4.41-5.03.24-.2.47-.4.7-.6ZM26.2,397.79c.87-.69,1.68-.45,2.84.87,1.12,1.27,1.28,2.15.43,2.86-.24.2-.47.39-.71.59-1.1-1.25-2.19-2.5-3.29-3.75.25-.19.49-.38.73-.57Z"/>
              <path class="cls-9" d="M36.98,397.92c1.72-1.84,1.42-3.87-.65-6.23-2.08-2.37-3.88-2.74-5.72-1.04-.54.5-1.09,1-1.65,1.49-.31.27-.29.79.05,1.18,3.38,3.85,6.76,7.71,10.14,11.56.34.38.83.45,1.11.14.13-.14.26-.29.39-.43.26-.29.21-.85-.12-1.22-1.4-1.59-2.79-3.18-4.19-4.78.21-.22.43-.45.64-.67ZM32.24,392.52c.8-.77,1.56-.59,2.66.66,1.06,1.21,1.22,2.08.45,2.88-.22.22-.43.44-.65.66-1.04-1.19-2.08-2.37-3.12-3.56.22-.21.45-.42.67-.64Z"/>
              <path class="cls-9" d="M35.74,386.29c-.21-.12-.63-.06-.8.11-.15.16-.31.32-.46.47-.4.41-.24,1.1.32,1.4,2.22,1.19,4.4,2.3,6.55,3.41,1.51,1.73,3.03,3.45,4.54,5.18.31.36.77.38,1.01.06.12-.16.24-.31.35-.47.25-.34.2-.89-.11-1.24-1.49-1.69-2.97-3.39-4.46-5.08-.98-2.46-1.93-4.89-2.86-7.29-.24-.59-.84-.77-1.22-.36-.15.17-.31.34-.46.51-.15.17-.22.62-.14.87.57,1.48,1.16,2.98,1.75,4.49-1.33-.67-2.66-1.35-4.02-2.05Z"/>
              <path class="cls-9" d="M48.29,380.86c-1.21-1.37-2.41-2.75-3.62-4.12-.29-.33-.73-.34-1.01-.02-.13.15-.25.29-.38.44-.27.31-.26.83.04,1.16,2.93,3.34,5.85,6.67,8.78,10.01.29.33.72.32.96-.03.11-.16.23-.33.34-.49.24-.35.2-.89-.08-1.22-1.2-1.37-2.4-2.74-3.6-4.11.47-.62.94-1.24,1.41-1.86,1.18,1.35,2.36,2.69,3.54,4.04.28.32.7.3.94-.05.11-.16.22-.33.34-.49.24-.35.21-.88-.07-1.2-2.79-3.18-5.57-6.35-8.36-9.53-.28-.32-.72-.32-.99,0-.13.15-.25.29-.38.44-.27.31-.26.82.02,1.15,1.19,1.35,2.37,2.7,3.55,4.05-.48.61-.95,1.22-1.43,1.83Z"/>
              <path class="cls-9" d="M54.68,378.97c1.08,1.23,1.98,1.58,2.78,1.52.84-.08,1.45-.69,1.89-1.31.45-.64.86-1.49.85-2.53-.02-.99-.35-2.02-1.38-3.19-1.22-1.39-2.44-2.79-3.67-4.18-1.64-1.87-3.27-2.05-4.79-.34-1.5,1.69-1.29,3.64.44,5.61,1.29,1.47,2.58,2.94,3.87,4.42ZM52.12,372.94c-.88-1-1.03-1.79-.43-2.49.58-.68,1.25-.57,2.13.43,1.24,1.42,2.49,2.83,3.73,4.25.9,1.02,1,1.83.48,2.54-.53.73-1.21.62-2.1-.39-1.27-1.45-2.54-2.9-3.81-4.35Z"/>
              <path class="cls-9" d="M65.1,369.53c-.24-.28-.65-.24-.91.08-.65.8-1.3,1.62-1.94,2.44-2.26-2.57-4.52-5.15-6.78-7.72-.25-.29-.68-.28-.95.01-.14.15-.27.29-.41.44-.28.3-.3.78-.04,1.07,2.57,2.93,5.13,5.85,7.7,8.78.26.29.66.25.91-.09.89-1.2,1.79-2.38,2.71-3.55.26-.33.27-.81.03-1.09-.11-.12-.22-.25-.33-.37Z"/>
              <path class="cls-9" d="M60.36,359.35c-.24-.27-.68-.24-.96.03-.14.13-.28.27-.41.4-.3.29-.34.74-.1,1.01,2.42,2.75,4.83,5.51,7.25,8.26.24.27.64.23.91-.09.12-.15.25-.3.37-.45.25-.3.29-.79.06-1.06-2.37-2.7-4.74-5.4-7.11-8.1Z"/>
              <path class="cls-9" d="M70.74,364.7c1.68-1.82,1.78-3.46.36-5.08-1.01-1.16-2.03-2.31-3.04-3.47-1.41-1.61-3.08-1.77-4.96-.17-.53.46-1.05.92-1.57,1.39-.31.28-.36.71-.13.98,2.34,2.67,4.68,5.33,7.01,8,.23.27.64.23.91-.08.47-.53.94-1.05,1.41-1.57ZM64.22,357.27c.82-.72,1.52-.61,2.27.24,1.04,1.18,2.07,2.36,3.11,3.54.75.85.78,1.58.03,2.37-.19.19-.37.39-.55.58-1.81-2.07-3.63-4.13-5.44-6.2.2-.18.4-.36.6-.54Z"/>
              <path class="cls-9" d="M77.42,357.75c.22.12.61.07.85-.12.16-.12.31-.25.47-.37.39-.3.44-.74.13-.95-2.78-1.73-5.6-3.52-8.47-5.36-.21-.14-.64-.1-.89.08-.12.09-.25.17-.37.26-.25.18-.39.53-.3.76.87,1.94,1.78,3.91,2.71,5.93.51,1.09,1.04,2.18,1.57,3.29.18.36.63.37.99.03.14-.14.29-.27.43-.41.22-.21.33-.59.23-.83-.38-.79-.75-1.58-1.12-2.37.53-.45,1.07-.89,1.62-1.33.72.47,1.44.94,2.16,1.4ZM71.73,353.92c1.2.78,1.45,1.12,2.13,1.55-.3.24-.61.47-.9.72-.41-.76-.82-1.52-1.23-2.27Z"/>
              <path class="cls-9" d="M73.52,348.85c-.17-.07-.59-.02-.8.11-.19.11-.38.23-.57.35-.5.31-.52.78-.08.95,1.77.68,3.54,1.32,5.28,1.96.95,1.09,1.91,2.17,2.86,3.26.2.22.62.21.95-.02.16-.11.32-.22.48-.33.34-.23.46-.6.27-.82-.93-1.06-1.86-2.12-2.79-3.17-.19-1.56-.34-3.08-.45-4.54-.04-.36-.59-.48-1.11-.23-.21.1-.42.2-.63.31-.21.1-.43.38-.42.54.09.93.19,1.88.31,2.85-1.09-.4-2.18-.8-3.28-1.21Z"/>
              <path class="cls-9" d="M82.97,351.01c1.24,1.41,2.8,1.48,4.88.42,2.02-1.01,2.71-2.06,1.75-3.15-.83-.95-2.66-.94-4.44-.91,0,0,.01,0,.02,0-1.32.02-2.64.05-3.1-.48-.47-.54-.23-.98.62-1.31.9-.35,1.6-.2,2.18.46.04.05.08.09.12.14.18.2.64.23,1.06.08.19-.07.39-.14.58-.21.42-.15.62-.42.44-.62-.04-.04-.08-.09-.12-.14-1.08-1.23-2.93-1.56-5.16-.74-2.18.82-2.7,2.07-1.64,3.27.93,1.06,2.73.97,4.49.91,0,0,0,0,0,0,1.3-.05,2.54-.06,2.96.41.47.53.17.91-.64,1.3-.27.13-.61.27-.92.26-.37,0-.75-.14-1.19-.64-.04-.04-.08-.09-.12-.14-.18-.21-.65-.21-1.01-.03-.18.09-.35.18-.53.27-.38.2-.52.53-.34.74.04.05.08.09.12.14Z"/>
            </g>
            <path class="cls-9" d="M78.6,343.21l-7.13-3.78c-.56-.3-.78-1-.48-1.57.3-.56,1-.78,1.57-.48.1.05.19.12.27.2l5.78,5.63Z"/>
            <path class="cls-9" d="M83.43,340.1l-4.1-9.42c-.25-.58.01-1.27.6-1.52.58-.25,1.26.01,1.52.6.03.08.06.16.08.25l1.91,10.1Z"/>
            <path class="cls-9" d="M87.77,341.11l4.57-9.12c.29-.57.98-.8,1.55-.51.57.29.8.98.51,1.55-.04.08-.09.15-.14.22l-6.49,7.87Z"/>
          </g>
          <g>
            <path class="cls-6" d="M109.93,392.86c-.57.23-1.14.46-1.72.69"/>
            <path class="cls-7" d="M104.74,394.95c-26.94,10.87-53.85,21.98-79.09,36.34-22.58,12.85-44,28.46-61.32,47.86-9.41,10.53-17.48,22.25-23.98,34.79"/>
          </g>
          <g>
            <path class="cls-6" d="M23.38,314.67c-.42.45-.84.91-1.24,1.37"/>
            <path class="cls-4" d="M19.82,318.98c-4.37,6-7.27,13.06-8.46,20.38-1.41,8.68,1.4,16.56.5,25.14-1.77,16.74-12.53,31.62-26.24,41.38-37.84,26.95-95.27,22.14-130.41-7.41"/>
          </g>
          <text class="cls-11" transform="translate(-21.44 296.21) scale(.96 1)"><tspan x="0" y="0">Holi</tspan><tspan x="0" y="14.41">d</tspan><tspan class="cls-14" x="10.22" y="14.41">a</tspan><tspan class="cls-13" x="18.81" y="14.41">y</tspan><tspan x="27.24" y="14.41">s</tspan></text>
          <g>
            <path class="cls-9" d="M1.55,506.39c-.68-.18-1.37-.34-2.05-.48-.35.77-.69,1.55-1.02,2.34-.11.23-.43.39-.71.36-.18-.02-.36-.04-.55-.06-.45-.05-.73-.4-.61-.77.39-1.14.8-2.25,1.25-3.34.84-2,1.77-3.92,2.79-5.74.13-.21.55-.29.91-.17.18.06.35.12.53.18.36.12.73.46.75.71.48,3.4.74,6.65.8,9.73,0,.35-.38.55-.82.44-.18-.05-.36-.09-.54-.14-.28-.07-.53-.33-.56-.57-.04-.82-.1-1.65-.17-2.49ZM.2,504.47c.39.09.78.19,1.17.3-.1-.79.03-1.19-.16-2.61-.35.76-.69,1.53-1.01,2.31Z"/>
            <path class="cls-9" d="M8.01,504.4c.86-.52,1.74-.99,2.65-1.41.16-.06.59.03.83.18.24.15.48.3.71.45.58.38.77.9.42,1.04-1.49.55-2.93,1.26-4.3,2.1-.49,1.21-.98,2.43-1.47,3.64-.1.25-.47.34-.84.2-.17-.06-.34-.12-.51-.19-.35-.12-.57-.43-.48-.7.43-1.29.87-2.59,1.3-3.88-.43-1.71-.98-3.5-1.61-5.34-.17-.46.3-.68.95-.39.25.11.49.22.74.33.28.13.62.46.67.64.35,1.13.66,2.24.94,3.32Z"/>
            <path class="cls-9" d="M10.5,509.62c.12-.23.52-.24.89-.01.18.11.35.21.53.32.36.22.57.59.44.8-.03.04-.06.09-.08.14-.31.51-.29.84-.12,1.12.12.23.41.44.66.6.74.47,1.25.59,1.63.1.33-.43-.23-1.38-.89-2.4,0,0,0,0,0,0-.87-1.37-1.91-2.82-1.34-3.96.65-1.3,2.32-1.23,4.46.56,2.16,1.84,2.69,3.54,1.76,4.56-.03.04-.07.08-.1.12-.15.16-.55.03-.91-.28-.17-.15-.34-.3-.51-.44-.37-.31-.55-.7-.41-.89.03-.04.07-.09.1-.13.46-.61.27-1.24-.59-1.94-.82-.66-1.44-.76-1.77-.21-.32.54.38,1.62,1.02,2.68,0,0-.01,0-.02-.01.88,1.43,1.67,2.86.95,3.65-.83.91-2.22.66-4.03-.43-1.88-1.11-2.49-2.27-1.72-3.79.03-.05.05-.1.08-.15Z"/>
          </g>
        </g>
        <g>
          <g>
            <path class="cls-3" d="M605.74,221.81l-55.73,25.64c-2.19,1.01-4.82.04-5.83-2.15l-16.66-36.21c-1.01-2.2-.04-4.82,2.15-5.83l55.73-25.64c2.19-1.01,4.82-.04,5.83,2.15l16.66,36.21c1.01,2.19.04,4.82-2.15,5.83Z"/>
            <g>
              <g>
                <line class="cls-3" x1="534.82" y1="200.91" x2="555.15" y2="245.09"/>
                <line class="cls-3" x1="539.29" y1="198.85" x2="559.62" y2="243.03"/>
              </g>
              <g>
                <line class="cls-3" x1="575.8" y1="182.05" x2="596.13" y2="226.23"/>
                <line class="cls-3" x1="580.27" y1="179.99" x2="600.6" y2="224.17"/>
              </g>
            </g>
            <path class="cls-3" d="M565.65,186.72l-2.23-4.85c-1.03-2.24-3.63-3.26-5.78-2.27l-8.38,3.86c-2.15.99-3.07,3.63-2.04,5.87l2.23,4.84"/>
          </g>
          <g>
            <path class="cls-3" d="M622.53,179.41c-1.29,3.12-6.81,5.21-10.87,3.31-4.05-1.9-5.1-7.07-3.81-10.19,1.29-3.12,5.04-2.72,9.09-.82,4.05,1.9,6.87,4.58,5.59,7.7Z"/>
            <path class="cls-3" d="M626.98,181.49c-1.28,3.12,1.02,8.88,5.07,10.78,4.05,1.9,8.33-.78,9.61-3.9,1.29-3.12-1.53-5.8-5.59-7.7-4.05-1.9-7.81-2.3-9.09.82Z"/>
            <path class="cls-8" d="M622.27,179.92s3.43-2.43,4.52,2.12"/>
            <line class="cls-3" x1="607.85" y1="172.53" x2="606.13" y2="171.72"/>
            <line class="cls-3" x1="643.38" y1="189.17" x2="641.66" y2="188.37"/>
            <line class="cls-8" x1="621.71" y1="175.06" x2="630.61" y2="179.23"/>
          </g>
          <path class="cls-9" d="M632.99,63.59l-12.68-13c.29-.77.51-1.55.69-2.34l17.48-4.74-17.71-3.38c-.11-.41-.22-.81-.36-1.22-.14-.4-.3-.8-.47-1.19l11.73-13.68-16.62,7.19c-.63-.52-1.3-1-2-1.42l1.81-18.06-9.34,15.73c-.28-.02-.57-.04-.86-.04-.47,0-.95.02-1.41.07l-9.54-15.63,2.29,18.19c-.63.42-1.23.87-1.79,1.37l-17.12-6.48,12.69,13.01c-.28.76-.5,1.54-.68,2.33l-17.5,4.74,17.72,3.38c.11.41.22.81.36,1.22.14.4.3.8.47,1.19l-11.73,13.68,16.62-7.19c.63.52,1.3.99,2,1.41l-1.81,18.06,9.34-15.73c.28.02.57.04.85.04.47,0,.94-.02,1.41-.07l9.54,15.63-2.28-18.19c.63-.42,1.24-.87,1.8-1.37l17.11,6.48ZM617.77,55.09c.5-.64.97-1.31,1.38-2.02l3.94,4.04-5.32-2.01ZM627.1,43.95l-5.74,1.55c.04-.89,0-1.78-.09-2.67l5.84,1.11ZM618.64,35.3c-.48-.76-1.02-1.47-1.6-2.13l5.46-2.36-3.86,4.5ZM611.16,23.01l-.56,5.61c-.76-.3-1.54-.55-2.33-.73l2.9-4.88ZM597.73,23.4l2.83,4.63c-.37.1-.73.21-1.09.33-.36.13-.71.28-1.06.43l-.68-5.39ZM586.98,31.47l5.33,2.02c-.51.64-.98,1.31-1.39,2.02l-3.95-4.04ZM582.97,44.63l5.75-1.56c-.04.88,0,1.78.09,2.67l-5.84-1.12ZM591.43,53.28c.48.76,1.02,1.47,1.6,2.13l-5.46,2.36,3.86-4.5ZM598.91,65.57l.56-5.61c.76.3,1.54.55,2.34.73l-2.9,4.88ZM612.34,65.18l-2.83-4.63c.37-.1.73-.2,1.09-.33.36-.13.71-.28,1.06-.43l.68,5.39ZM609.79,57.89c-1.42.5-2.89.75-4.39.75-5.97,0-11.35-3.94-13.4-9.79-2.62-7.5,1.09-15.65,8.27-18.16,1.42-.5,2.89-.75,4.39-.75,5.97,0,11.35,3.94,13.4,9.79,1.27,3.64,1.11,7.54-.46,10.98-1.56,3.42-4.34,5.97-7.81,7.19Z"/>
          <g>
            <text class="cls-10" transform="translate(503.4 35.61) scale(.96 1)"><tspan x="0" y="0">n</tspan></text>
            <text class="cls-10" transform="translate(504.66 130.9) scale(.96 1)"><tspan x="0" y="0">s</tspan></text>
            <text class="cls-10" transform="translate(548.63 81.54) scale(.96 1)"><tspan x="0" y="0">e</tspan></text>
            <text class="cls-10" transform="translate(461.12 81.54) scale(.96 1)"><tspan x="0" y="0">w</tspan></text>
          </g>
          <path class="cls-9" d="M517.62,83l27.31-5.11-27.31-5.11,11.21-16.77-16.09,11.64-4.95-28.66-4.95,28.66-16.09-11.64,11.21,16.77-27.31,5.11,27.31,5.11-11.21,16.77,16.09-11.64,4.95,28.66,4.95-28.66,16.09,11.64-11.21-16.77ZM515.3,82.17c.98-1.5,1.55-3.3,1.55-5.24,0-1.11-.2-2.16-.54-3.15l21.91,4.1-22.92,4.29ZM499.95,76.94c0-4.5,3.51-8.15,7.83-8.15s7.83,3.65,7.83,8.15-3.51,8.15-7.83,8.15-7.83-3.65-7.83-8.15ZM523.99,61.03l-7.69,11.51-.57-.11c-.66-1.24-1.59-2.31-2.7-3.13l-.05-.3,11.02-7.97ZM511.63,68.45c-1.17-.57-2.47-.9-3.84-.9s-2.67.33-3.84.9l3.84-22.23,3.84,22.23ZM491.58,61.03l11.02,7.97-.05.3c-1.11.82-2.04,1.89-2.7,3.13l-.58.11-7.69-11.51ZM499.26,73.79c-.34.99-.54,2.04-.54,3.15,0,1.94.57,3.74,1.55,5.24l-22.92-4.29,21.91-4.1ZM491.58,94.75l7.69-11.51,2.2.41c.22.22.46.43.7.63l.43,2.49-11.02,7.97ZM503.58,85.24c1.26.68,2.68,1.08,4.2,1.08s2.94-.39,4.2-1.08l-4.2,24.31-4.2-24.31ZM513.4,84.29c.24-.2.48-.41.7-.63l2.2-.41,7.69,11.51-11.02-7.97.43-2.49Z"/>
          <path class="cls-9" d="M634.65,124.36c-3.46-5.8-10.2-9.4-16.73-8.88-.93-4.99-5.74-9.12-10.96-9.12-.68,0-1.34.07-1.99.21-1.73-9.01-10.12-16.36-19.04-16.36h-.35c-8.9.19-17.01,7.6-18.63,16.61-2.66-1.4-6.02-1.59-8.79-.45-2.91,1.2-4.64,3.54-4.75,6.24-.22-.02-.36-.02-.37-.02-.76.01-1.53.16-2.28.44-1.45.54-2.78,1.54-3.75,2.83-2.3,3.07-2.42,5.39-2.42,8.95l.02,1.42h91.16l-1.11-1.86ZM547.05,123.76c.04-2.65.29-4.23,1.92-6.42.68-.91,1.61-1.62,2.63-1.99.49-.18.99-.28,1.45-.29.25,0,1.02.09,1.2.15l2.22,1-.5-2.38c-.56-2.64,1.25-4.41,3.13-5.18.91-.38,1.9-.57,2.93-.57,1.89,0,3.7.64,5.12,1.81l1.85,1.53.16-2.4c.59-8.68,8.14-16.17,16.48-16.35h.3c8.2,0,15.89,7.15,16.81,15.63l.18,1.63,1.52-.62c.79-.32,1.64-.49,2.53-.49,4.34,0,8.46,3.85,8.65,8.08l.06,1.39,1.37-.22c.7-.12,1.42-.17,2.14-.17,4.57,0,9.09,2.25,12.05,5.87h-84.17Z"/>
          <path class="cls-9" d="M655.02,111.55c0-2.51-.09-4.15-1.71-6.31-.68-.91-1.62-1.62-2.64-2-.53-.2-1.08-.3-1.61-.31,0,0-.11,0-.26.01-.08-1.9-1.3-3.56-3.35-4.4-1.96-.81-4.32-.67-6.21.32-1.15-6.36-6.87-11.59-13.15-11.72h-.25c-6.29,0-12.22,5.19-13.44,11.55-.46-.1-.92-.15-1.4-.15-3.56,0-6.85,2.72-7.65,6.09.23.76.49,1.5.79,2.22l.72.12.04-.98c.13-2.98,3.04-5.7,6.1-5.7.62,0,1.22.12,1.78.34l1.07.44.12-1.15c.64-5.98,6.08-11.03,11.86-11.03h.21c5.89.13,11.21,5.41,11.63,11.54l.11,1.69,1.31-1.08c1-.82,2.28-1.28,3.61-1.28.72,0,1.42.13,2.06.4,1.33.55,2.6,1.79,2.21,3.66l-.36,1.68,1.57-.71c.13-.04.68-.11.85-.11.32,0,.67.07,1.02.2.71.26,1.37.76,1.85,1.41,1.16,1.55,1.33,2.66,1.36,4.53h-38.5c.22.55.38,1.17.59,1.74h39.64v-1Z"/>
          <g>
            <path class="cls-7" d="M779.74,134.09c-26.94,10.87-53.85,21.98-79.09,36.34-22.58,12.85-44,28.46-61.32,47.86-9.41,10.53-17.48,22.25-23.98,34.79"/>
            <path class="cls-6" d="M614.5,254.75c-.28.55-.55,1.1-.82,1.66"/>
          </g>
          <g>
            <path class="cls-4" d="M694.82,58.12c-4.37,6-7.27,13.06-8.46,20.38-1.41,8.68,1.4,16.56.5,25.14-1.77,16.74-12.53,31.62-26.24,41.38-37.84,26.95-95.27,22.14-130.41-7.41"/>
            <path class="cls-6" d="M528.78,136.39c-.46-.41-.92-.82-1.38-1.23"/>
          </g>
          <path class="cls-4" d="M521.29,1.76c8.79,19.22,18.88,38.09,32.76,54.02,13.89,15.93,31.91,28.86,52.48,33.73"/>
          <text class="cls-11" transform="translate(653.56 35.36) scale(.96 1)"><tspan x="0" y="0">Holi</tspan><tspan x="0" y="14.41">d</tspan><tspan class="cls-14" x="10.22" y="14.41">a</tspan><tspan class="cls-13" x="18.81" y="14.41">y</tspan><tspan x="27.24" y="14.41">s</tspan></text>
          <g>
            <path class="cls-9" d="M641.2,247.82l-3.55-4.92c-.28-.39-.14-.92.32-1.19.22-.12.43-.25.65-.37.47-.26,1.05-.14,1.3.25,2.59,3.96,5.17,7.91,7.76,11.87.26.39.22.89-.08,1.12-.14.11-.28.22-.42.33-.3.24-.76.12-1.04-.27-1.18-1.63-2.36-3.27-3.54-4.9-.67.48-1.34.98-1.99,1.5,1.29,1.61,2.58,3.22,3.88,4.83.31.38.33.9.05,1.18-.13.13-.26.26-.38.38-.27.28-.75.2-1.09-.17-3.34-3.79-6.69-7.59-10.03-11.38-.33-.38-.26-.95.18-1.27.21-.15.41-.3.62-.45.44-.32,1.05-.25,1.35.13,1.3,1.62,2.59,3.23,3.89,4.85.69-.54,1.4-1.04,2.12-1.53Z"/>
            <path class="cls-9" d="M643.73,243.77c-1.52-2.48-1.05-4.53,1.63-5.52,2.72-.97,4.62.08,5.61,2.58.76,1.87,1.52,3.74,2.29,5.61.63,1.56.62,2.63.35,3.49-.3.89-.92,1.41-1.53,1.74-.6.32-1.35.56-2.26.26-.86-.3-1.78-.98-2.72-2.54-1.12-1.87-2.24-3.74-3.37-5.61ZM648.93,248.36c.71,1.31,1.41,1.72,2.16,1.33.74-.38.87-1.13.25-2.48-.87-1.88-1.74-3.75-2.61-5.63-.61-1.33-1.37-1.75-2.38-1.36-1.03.4-1.15,1.22-.45,2.51,1.01,1.88,2.02,3.75,3.03,5.63Z"/>
            <path class="cls-9" d="M661.01,247.61c.08.38-.14.75-.5.83-1.29.31-2.56.69-3.81,1.14-.35.13-.74-.08-.89-.47-1.46-3.96-2.92-7.92-4.38-11.88-.15-.39.13-.8.64-.91.24-.05.48-.1.73-.15.48-.09.98.15,1.1.54,1.11,3.51,2.22,7.03,3.32,10.54.94-.28,1.88-.51,2.84-.71.39-.08.76.17.84.55.04.17.08.34.11.52Z"/>
            <path class="cls-9" d="M663.88,247.14c.05.37-.22.71-.57.76-.17.03-.34.05-.52.08-.37.06-.72-.19-.79-.56-.73-3.79-1.46-7.58-2.19-11.38-.07-.38.27-.7.78-.71.24,0,.47,0,.71-.01.48,0,.95.29,1,.66.53,3.72,1.05,7.44,1.58,11.16Z"/>
            <path class="cls-9" d="M665.95,247.6c-.37.03-.7-.23-.74-.6-.39-3.66-.77-7.32-1.16-10.98-.04-.37.33-.64.84-.61.86.05,1.71.13,2.56.23,3.02.39,4.32,1.89,4.18,4.03-.09,1.54-.18,3.08-.27,4.63-.15,2.16-1.27,3.16-3.5,3.21-.64.01-1.27.04-1.91.09ZM666.57,237.31c.15,2.82.31,5.64.46,8.47.26,0,.51,0,.77,0,1.04,0,1.48-.51,1.48-1.67,0-1.6.01-3.19.02-4.79,0-1.15-.51-1.79-1.8-1.93-.31-.03-.63-.06-.94-.09Z"/>
            <path class="cls-9" d="M676.55,245.53c-.68-.18-1.37-.34-2.05-.48-.35.77-.69,1.55-1.02,2.34-.11.23-.43.39-.71.36-.18-.02-.36-.04-.55-.06-.45-.04-.73-.4-.61-.77.39-1.14.8-2.25,1.25-3.34.84-2,1.77-3.92,2.79-5.74.13-.21.55-.29.91-.17.18.06.35.12.53.18.36.12.73.46.75.71.48,3.4.74,6.65.8,9.73,0,.35-.38.55-.82.44-.18-.05-.36-.09-.54-.14-.28-.07-.53-.33-.56-.57-.04-.82-.1-1.65-.17-2.49ZM675.2,243.61c.39.09.78.19,1.17.3-.1-.79.03-1.19-.16-2.61-.35.76-.69,1.53-1.01,2.31Z"/>
          </g>
          <text class="cls-11" transform="translate(435.49 131.2) scale(.96 1)"><tspan x="0" y="0">Holid</tspan><tspan class="cls-14" x="40.51" y="0">a</tspan><tspan class="cls-13" x="49.1" y="0">y</tspan><tspan x="57.53" y="0">s</tspan></text>
        </g>
        <g>
          <path class="cls-2" d="M362.36,177.63c-3.06-2.16-6.1-4.33-9.14-6.51-.24-.17-.76-.29-.5-.75.25-.45.52-.97,1.22-.8,1.76.41,3.52.78,5.28,1.17,1.83.4,3.67.8,5.49,1.22.43.1.72,0,.99-.37,3.69-5.09,7.89-9.74,11.79-14.65.59-.74.61-.75-.16-1.3-3.6-2.56-7.21-5.12-10.82-7.68-3.9-2.78-7.79-5.56-11.7-8.34-2-1.42-4.01-2.83-6.02-4.24-.18-.12-.34-.28-.52-.4-.46-.29-.4-.59-.08-.96.53-.61,1.05-1.24,1.54-1.88.31-.41.65-.5,1.13-.39,3.26.74,6.52,1.46,9.78,2.19.99.22,1.97.43,2.96.67.48.12.81-.02,1.12-.43.89-1.19,1.9-2.26,3.18-2.99.04-.02.08-.06.12-.08.66-.28,1.35-.72,2.03-.14.67.58.34,1.34.16,2.02-.2.78-.59,1.47-1.03,2.13-.29.43-.29.67.3.79,2.8.59,5.59,1.21,8.38,1.85l5.71,1.26c2.28.49,4.56,1.01,6.83,1.53.41.09.62-.12.85-.4,1.28-1.56,2.56-3.12,3.83-4.68,2.76-3.38,5.75-6.5,9.21-9.12.87-.66,1.79-1.26,2.81-1.66.66-.26,1.38-.53,1.99,0,.64.56.49,1.37.33,2.11-.46,2.05-1.45,3.85-2.47,5.64-2.45,4.3-5.53,8.1-8.74,11.78-1.08,1.23-1.41,2.23-.64,3.78.77,1.54,1.25,3.24,1.83,4.88l2.51,6.87c1.03,2.44,1.88,4.97,2.79,7.47.21.57.44.46.76.15.71-.69,1.47-1.29,2.38-1.65.48-.19.98-.32,1.44.06.48.4.46.96.34,1.51-.36,1.63-1.2,3-2.3,4.18-.6.64-.62,1.19-.31,1.99,1.56,4.09,3.05,8.2,4.58,12.3.15.4.1.71-.17,1.03-.54.64-1.08,1.28-1.59,1.94-.33.44-.6.48-.98.06-1.08-1.21-2.18-2.39-3.27-3.59-2.29-2.53-4.57-5.05-6.86-7.58-2.63-2.91-5.26-5.81-7.9-8.72-2.12-2.34-4.26-4.67-6.37-7.02-.43-.48-.61-.11-.84.17-1.84,2.24-3.68,4.48-5.52,6.72-1.59,1.94-3.17,3.89-4.78,5.81-.57.68-1.18,1.32-1.8,1.94-.4.4-.48.77-.27,1.33,1.31,3.46,2.58,6.94,3.86,10.42.1.27.24.54.09.86-.39.84-.79.93-1.42.25-2.3-2.52-4.58-5.04-6.87-7.57-.15-.16-.31-.32-.44-.49l-4.13-3.71Z"/>
          <g>
            <path class="cls-3" d="M268.24,352.24l-55.73,25.64c-2.19,1.01-4.82.04-5.83-2.15l-16.66-36.21c-1.01-2.2-.04-4.82,2.15-5.83l55.73-25.64c2.19-1.01,4.82-.04,5.83,2.15l16.66,36.21c1.01,2.19.04,4.82-2.15,5.83Z"/>
            <g>
              <g>
                <line class="cls-3" x1="197.32" y1="331.34" x2="217.65" y2="375.52"/>
                <line class="cls-3" x1="201.79" y1="329.28" x2="222.12" y2="373.46"/>
              </g>
              <g>
                <line class="cls-3" x1="238.3" y1="312.48" x2="258.63" y2="356.66"/>
                <line class="cls-3" x1="242.77" y1="310.42" x2="263.1" y2="354.6"/>
              </g>
            </g>
            <path class="cls-3" d="M228.15,317.15l-2.23-4.85c-1.03-2.24-3.63-3.26-5.78-2.27l-8.38,3.86c-2.15.99-3.07,3.63-2.04,5.87l2.23,4.84"/>
          </g>
          <g>
            <path class="cls-3" d="M285.03,309.84c-1.29,3.12-6.81,5.21-10.87,3.31-4.05-1.9-5.1-7.07-3.81-10.19,1.29-3.12,5.04-2.72,9.09-.82,4.05,1.9,6.87,4.58,5.59,7.7Z"/>
            <path class="cls-3" d="M289.48,311.92c-1.28,3.12,1.02,8.88,5.07,10.78,4.05,1.9,8.33-.78,9.61-3.9,1.29-3.12-1.53-5.8-5.59-7.7-4.05-1.9-7.81-2.3-9.09.82Z"/>
            <path class="cls-8" d="M284.77,310.35s3.43-2.43,4.52,2.12"/>
            <line class="cls-3" x1="270.35" y1="302.96" x2="268.63" y2="302.15"/>
            <line class="cls-3" x1="305.88" y1="319.6" x2="304.16" y2="318.8"/>
            <line class="cls-8" x1="284.21" y1="305.49" x2="293.11" y2="309.66"/>
          </g>
          <path class="cls-9" d="M295.49,194.02l-12.68-13c.29-.77.51-1.55.69-2.34l17.48-4.74-17.71-3.38c-.11-.41-.22-.81-.36-1.22-.14-.4-.3-.8-.47-1.19l11.73-13.68-16.62,7.19c-.63-.52-1.3-1-2-1.42l1.81-18.06-9.34,15.73c-.28-.02-.57-.04-.86-.04-.47,0-.95.02-1.41.07l-9.54-15.63,2.29,18.19c-.63.42-1.23.87-1.79,1.37l-17.12-6.48,12.69,13.01c-.28.76-.5,1.54-.68,2.33l-17.5,4.74,17.72,3.38c.11.41.22.81.36,1.22.14.4.3.8.47,1.19l-11.73,13.68,16.62-7.19c.63.52,1.3.99,2,1.41l-1.81,18.06,9.34-15.73c.28.02.57.04.85.04.47,0,.94-.02,1.41-.07l9.54,15.63-2.28-18.19c.63-.42,1.24-.87,1.8-1.37l17.11,6.48ZM280.27,185.52c.5-.64.97-1.31,1.38-2.02l3.94,4.04-5.32-2.01ZM289.6,174.37l-5.74,1.55c.04-.89,0-1.78-.09-2.67l5.84,1.11ZM281.14,165.73c-.48-.76-1.02-1.47-1.6-2.13l5.46-2.36-3.86,4.5ZM273.66,153.44l-.56,5.61c-.76-.3-1.54-.55-2.33-.73l2.9-4.88ZM260.23,153.82l2.83,4.63c-.37.1-.73.21-1.09.33-.36.13-.71.28-1.06.43l-.68-5.39ZM249.48,161.89l5.33,2.02c-.51.64-.98,1.31-1.39,2.02l-3.95-4.04ZM245.47,175.06l5.75-1.56c-.04.88,0,1.78.09,2.67l-5.84-1.12ZM253.93,183.7c.48.76,1.02,1.47,1.6,2.13l-5.46,2.36,3.86-4.5ZM261.41,196l.56-5.61c.76.3,1.54.55,2.34.73l-2.9,4.88ZM274.84,195.61l-2.83-4.63c.37-.1.73-.21,1.09-.33.36-.13.71-.28,1.06-.43l.68,5.39ZM272.29,188.32c-1.42.5-2.89.75-4.39.75-5.97,0-11.35-3.94-13.4-9.79-2.62-7.5,1.09-15.65,8.27-18.16,1.42-.5,2.89-.75,4.39-.75,5.97,0,11.35,3.94,13.4,9.79,1.27,3.64,1.11,7.54-.46,10.98-1.56,3.42-4.34,5.97-7.81,7.19Z"/>
          <path class="cls-3" d="M344.93,357.96c.33-2.46.66-4.34,2.1-6.39,1.33-1.9,3.32-3.28,5.31-4.2,4.27-1.99,9.52-1.95,13.55.66.24-6.27,3.98-12.25,9.38-15.04,5.4-2.79,12.24-2.25,17.18,1.34-2.02-9.45,3.63-19.64,12.02-23.84,4.49-2.24,9.73-2.95,14.66-2.43,4.84.51,9.35,3.52,12.62,7.25,4.01,4.58,5.07,10.43,4.79,16.42,5.55.78,9.11,4.94,11.05,7.55,3.71,4.98,6.86,12.84,4.37,19.07l-107.02-.39Z"/>
          <g>
            <path class="cls-5" d="M454.52,243.79h64.35s-7.25,10.97-14.28,15.77h-43.93s-4.83-5.48-6.15-15.77Z"/>
            <polyline class="cls-5" points="506.86 243.79 493.25 226.88 469.09 226.88 469.09 233.58 459.71 233.58 459.71 243.79"/>
            <g>
              <line class="cls-6" x1="491.13" y1="230.98" x2="491.13" y2="232.18"/>
              <line class="cls-6" x1="486.74" y1="230.98" x2="486.74" y2="232.18"/>
              <line class="cls-6" x1="482.34" y1="230.98" x2="482.34" y2="232.18"/>
              <line class="cls-6" x1="477.95" y1="230.98" x2="477.95" y2="232.18"/>
              <line class="cls-6" x1="473.56" y1="230.98" x2="473.56" y2="232.18"/>
            </g>
            <g>
              <line class="cls-6" x1="491.13" y1="236.3" x2="491.13" y2="237.49"/>
              <line class="cls-6" x1="486.74" y1="236.3" x2="486.74" y2="237.49"/>
              <line class="cls-6" x1="482.34" y1="236.3" x2="482.34" y2="237.49"/>
              <line class="cls-6" x1="477.95" y1="236.3" x2="477.95" y2="237.49"/>
              <line class="cls-6" x1="473.56" y1="236.3" x2="473.56" y2="237.49"/>
            </g>
            <line class="cls-6" x1="473.56" y1="226.88" x2="473.56" y2="217.74"/>
            <line class="cls-6" x1="477.95" y1="226.88" x2="477.95" y2="217.74"/>
            <g>
              <path class="cls-9" d="M500.2,250.07c0-1.07.84-1.94,1.87-1.94s1.87.87,1.87,1.94-.84,1.94-1.87,1.94-1.87-.87-1.87-1.94Z"/>
              <path class="cls-9" d="M491.41,250.07c0-1.07.84-1.94,1.87-1.94s1.87.87,1.87,1.94-.84,1.94-1.87,1.94-1.87-.87-1.87-1.94Z"/>
              <path class="cls-9" d="M482.63,250.07c0-1.07.84-1.94,1.87-1.94s1.87.87,1.87,1.94-.84,1.94-1.87,1.94-1.87-.87-1.87-1.94Z"/>
              <path class="cls-9" d="M473.84,250.07c0-1.07.84-1.94,1.87-1.94s1.87.87,1.87,1.94-.84,1.94-1.87,1.94-1.87-.87-1.87-1.94Z"/>
              <path class="cls-9" d="M465.06,250.07c0-1.07.84-1.94,1.87-1.94s1.87.87,1.87,1.94-.83,1.94-1.87,1.94-1.87-.87-1.87-1.94Z"/>
            </g>
          </g>
          <path class="cls-6" d="M497.18,179.28c-16.43,7.31-42.86,7.46-56.31-6.74-7.77-8.2,7.8-10.89,13.01-10.9,6.2,0,12.42,1.77,18.07,4.36,9.8,4.5,18.5,11.39,29.07,14.04,14.51,3.63,32.7-.6,39.3-15.84.37-.86.7-1.77.63-2.7-.07-.94-.65-1.89-1.54-2.08-.78-.16-1.54.29-2.23.71-4.6,2.86-9.46,5.37-14.66,6.69-5.39,1.37-12.37,1.71-17.44-1.04"/>
          <path class="cls-6" d="M505.01,165.79c-.22-7.03-.33-11.51-4.9-16.11-2.52-2.54-5.97-3.91-9.45-4.42-12.26-1.79-21.07,5.15-22.28,19.26"/>
          <path class="cls-6" d="M469.27,159.3c11.64-1.86,23.62-1.35,35.07,1.47"/>
          <path class="cls-6" d="M471.47,165.79c10.99-1.27,21.52-.96,33.56.12"/>
          <g>
            <g>
              <path class="cls-9" d="M351.25,280.65c-1.63-1.86-3.25-3.71-4.88-5.57-.39-.44-1.03-.68-1.46-.54-.2.06-.4.13-.6.19-.43.14-.46.6-.07,1.05,3.93,4.48,7.87,8.97,11.8,13.45.39.45,1.03.67,1.42.5.19-.08.37-.16.55-.24.39-.18.39-.68,0-1.12-1.62-1.85-3.24-3.7-4.86-5.54.74-.31,1.47-.63,2.19-.96,1.6,1.82,3.2,3.65,4.8,5.47.38.44.99.63,1.36.43.17-.1.34-.19.52-.29.37-.2.35-.72-.02-1.15-3.79-4.32-7.59-8.65-11.38-12.97-.38-.43-.99-.63-1.39-.46-.19.08-.37.16-.56.24-.4.17-.42.64-.04,1.08,1.61,1.83,3.21,3.66,4.82,5.49-.72.33-1.46.64-2.21.94Z"/>
              <path class="cls-9" d="M368.29,282.42c.34.26.83.33,1.07.13.16-.12.31-.25.47-.37.38-.31.26-.95-.23-1.36-4.32-3.49-8.72-7.07-13.19-10.73-.33-.28-.87-.37-1.14-.21-.13.08-.27.15-.4.23-.27.15-.33.59-.13.95,1.84,3.04,3.7,6.11,5.58,9.2,1.03,1.67,2.06,3.34,3.1,5.03.34.54,1,.8,1.42.53.17-.11.34-.22.5-.33.26-.17.29-.63.09-.99-.76-1.23-1.52-2.46-2.27-3.68.59-.39,1.17-.79,1.75-1.19,1.14.94,2.27,1.88,3.4,2.81ZM359.29,274.81c1.89,1.56,2.34,2.14,3.41,3.02-.32.21-.64.43-.97.64-.82-1.22-1.63-2.44-2.44-3.65Z"/>
              <path class="cls-9" d="M368.69,273.06c1.88-1.66,1.58-3.69-.6-6.18-2.19-2.5-4.11-3-6.11-1.48-.59.45-1.19.89-1.8,1.32-.34.24-.33.75.03,1.15,3.55,4.05,7.11,8.11,10.67,12.16.35.4.89.51,1.19.24.14-.13.29-.26.43-.39.29-.26.25-.81-.1-1.2-1.47-1.68-2.94-3.35-4.41-5.03.24-.2.47-.4.7-.6ZM363.7,267.37c.87-.69,1.68-.45,2.84.87,1.12,1.27,1.28,2.15.43,2.86-.24.2-.47.39-.71.59-1.1-1.25-2.19-2.5-3.29-3.75.25-.19.49-.38.73-.57Z"/>
              <path class="cls-9" d="M374.48,267.5c1.72-1.84,1.42-3.87-.65-6.23-2.08-2.37-3.88-2.74-5.72-1.04-.54.5-1.09,1-1.65,1.49-.31.27-.29.79.05,1.18,3.38,3.85,6.76,7.71,10.14,11.56.34.38.83.45,1.11.14.13-.14.26-.29.39-.43.26-.29.21-.85-.12-1.22-1.4-1.59-2.79-3.18-4.19-4.78.21-.22.43-.45.64-.67ZM369.74,262.09c.8-.77,1.56-.59,2.66.66,1.06,1.21,1.22,2.08.45,2.88-.22.22-.43.44-.65.66-1.04-1.19-2.08-2.37-3.12-3.56.22-.21.45-.42.67-.64Z"/>
              <path class="cls-9" d="M373.24,255.86c-.21-.12-.63-.06-.8.11-.15.16-.31.32-.46.47-.4.41-.24,1.1.32,1.4,2.22,1.19,4.4,2.3,6.55,3.41,1.51,1.73,3.03,3.45,4.54,5.18.31.36.77.38,1.01.06.12-.16.24-.31.35-.47.25-.34.2-.89-.11-1.24-1.49-1.69-2.97-3.39-4.46-5.08-.98-2.46-1.93-4.89-2.86-7.29-.24-.59-.84-.77-1.22-.36-.15.17-.31.34-.46.51-.15.17-.22.62-.14.87.57,1.48,1.16,2.98,1.75,4.49-1.33-.67-2.66-1.35-4.02-2.05Z"/>
              <path class="cls-9" d="M385.79,250.43c-1.21-1.37-2.41-2.75-3.62-4.12-.29-.33-.73-.34-1.01-.02-.13.15-.25.29-.38.44-.27.31-.26.83.04,1.16,2.93,3.34,5.85,6.67,8.78,10.01.29.33.72.32.96-.03.11-.16.23-.33.34-.49.24-.35.2-.89-.08-1.22-1.2-1.37-2.4-2.74-3.6-4.11.47-.62.94-1.24,1.41-1.86,1.18,1.35,2.36,2.69,3.54,4.04.28.32.7.3.94-.05.11-.16.22-.33.34-.49.24-.35.21-.88-.07-1.2-2.79-3.18-5.57-6.35-8.36-9.53-.28-.32-.72-.32-.99,0-.13.15-.25.29-.38.44-.27.31-.26.82.02,1.15,1.19,1.35,2.37,2.7,3.55,4.05-.48.61-.95,1.22-1.43,1.83Z"/>
              <path class="cls-9" d="M392.18,248.54c1.08,1.23,1.98,1.58,2.78,1.52.84-.08,1.45-.69,1.89-1.31.45-.64.86-1.49.85-2.53-.02-.99-.35-2.02-1.38-3.19-1.22-1.39-2.44-2.79-3.67-4.18-1.64-1.87-3.27-2.05-4.79-.34-1.5,1.69-1.29,3.64.44,5.61,1.29,1.47,2.58,2.94,3.87,4.42ZM389.62,242.51c-.88-1-1.03-1.79-.43-2.49.58-.68,1.25-.57,2.13.43,1.24,1.42,2.49,2.83,3.73,4.25.9,1.02,1,1.83.48,2.54-.53.73-1.21.62-2.1-.39-1.27-1.45-2.54-2.9-3.81-4.35Z"/>
              <path class="cls-9" d="M402.6,239.1c-.24-.28-.65-.24-.91.08-.65.8-1.3,1.62-1.94,2.44-2.26-2.57-4.52-5.15-6.78-7.72-.25-.29-.68-.28-.95.01-.14.15-.27.29-.41.44-.28.3-.3.78-.04,1.07,2.57,2.93,5.13,5.85,7.7,8.78.26.29.66.25.91-.09.89-1.2,1.79-2.38,2.71-3.55.26-.33.27-.81.03-1.09-.11-.12-.22-.25-.33-.37Z"/>
              <path class="cls-9" d="M397.86,228.92c-.24-.27-.68-.24-.96.03-.14.13-.28.27-.41.4-.3.29-.34.74-.1,1.01,2.42,2.75,4.83,5.51,7.25,8.26.24.27.64.23.91-.09.12-.15.25-.3.37-.45.25-.3.29-.79.06-1.06-2.37-2.7-4.74-5.4-7.11-8.1Z"/>
              <path class="cls-9" d="M408.24,234.27c1.68-1.82,1.78-3.46.36-5.08-1.01-1.16-2.03-2.31-3.04-3.47-1.41-1.61-3.08-1.77-4.96-.17-.53.46-1.05.92-1.57,1.39-.31.28-.36.71-.13.98,2.34,2.67,4.68,5.33,7.01,8,.23.27.64.23.91-.08.47-.53.94-1.05,1.41-1.57ZM401.72,226.84c.82-.72,1.52-.61,2.27.24,1.04,1.18,2.07,2.36,3.11,3.54.75.85.78,1.58.03,2.37-.19.19-.37.39-.55.58-1.81-2.07-3.63-4.13-5.44-6.2.2-.18.4-.36.6-.54Z"/>
              <path class="cls-9" d="M414.92,227.32c.22.12.61.07.85-.12.16-.12.31-.25.47-.37.39-.3.44-.74.13-.95-2.78-1.73-5.6-3.52-8.47-5.36-.21-.14-.64-.1-.89.08-.12.09-.25.17-.37.26-.25.18-.39.53-.3.76.87,1.94,1.78,3.91,2.71,5.93.51,1.09,1.04,2.18,1.57,3.29.18.36.63.37.99.03.14-.14.29-.27.43-.41.22-.21.33-.59.23-.83-.38-.79-.75-1.58-1.12-2.37.53-.45,1.07-.89,1.62-1.33.72.47,1.44.94,2.16,1.4ZM409.23,223.49c1.2.78,1.45,1.12,2.13,1.55-.3.24-.61.47-.9.72-.41-.76-.82-1.52-1.23-2.27Z"/>
              <path class="cls-9" d="M411.02,218.42c-.17-.07-.59-.02-.8.11-.19.11-.38.23-.57.35-.5.31-.52.78-.08.95,1.77.68,3.54,1.32,5.28,1.96.95,1.09,1.91,2.17,2.86,3.26.2.22.62.21.95-.02.16-.11.32-.22.48-.33.34-.23.46-.6.27-.82-.93-1.06-1.86-2.12-2.79-3.17-.19-1.56-.34-3.08-.45-4.54-.04-.36-.59-.48-1.11-.23-.21.1-.42.2-.63.31-.21.1-.43.38-.42.54.09.93.19,1.88.31,2.85-1.09-.4-2.18-.8-3.28-1.21Z"/>
              <path class="cls-9" d="M420.47,220.58c1.24,1.41,2.8,1.48,4.88.42,2.02-1.01,2.71-2.06,1.75-3.15-.83-.95-2.66-.94-4.44-.91,0,0,.01,0,.02,0-1.32.02-2.64.05-3.1-.48-.47-.54-.23-.98.62-1.31.9-.35,1.6-.2,2.18.46.04.05.08.09.12.14.18.2.64.23,1.06.08.19-.07.39-.14.58-.21.42-.15.62-.42.44-.62-.04-.04-.08-.09-.12-.14-1.08-1.23-2.93-1.56-5.16-.74-2.18.82-2.7,2.07-1.64,3.27.93,1.06,2.73.97,4.49.91,0,0,0,0,0,0,1.3-.05,2.54-.06,2.96.41.47.53.17.91-.64,1.3-.27.13-.61.27-.92.26-.37,0-.75-.14-1.19-.64-.04-.04-.08-.09-.12-.14-.18-.21-.65-.21-1.01-.03-.18.09-.35.18-.53.27-.38.2-.52.53-.34.74.04.05.08.09.12.14Z"/>
            </g>
            <path class="cls-9" d="M416.1,212.78l-7.13-3.78c-.56-.3-.78-1-.48-1.57.3-.56,1-.78,1.57-.48.1.05.19.12.27.2l5.78,5.63Z"/>
            <path class="cls-9" d="M420.93,209.67l-4.1-9.42c-.25-.58.01-1.27.6-1.52.58-.25,1.26.01,1.52.6.03.08.06.16.08.25l1.91,10.1Z"/>
            <path class="cls-9" d="M425.27,210.68l4.57-9.12c.29-.57.98-.8,1.55-.51.57.29.8.98.51,1.55-.04.08-.09.15-.14.22l-6.49,7.87Z"/>
          </g>
          <g>
            <text class="cls-10" transform="translate(165.9 166.04) scale(.96 1)"><tspan x="0" y="0">n</tspan></text>
            <text class="cls-10" transform="translate(167.16 261.32) scale(.96 1)"><tspan x="0" y="0">s</tspan></text>
            <text class="cls-10" transform="translate(211.13 211.97) scale(.96 1)"><tspan x="0" y="0">e</tspan></text>
            <text class="cls-10" transform="translate(123.62 211.97) scale(.96 1)"><tspan x="0" y="0">w</tspan></text>
          </g>
          <path class="cls-9" d="M180.12,213.42l27.31-5.11-27.31-5.11,11.21-16.77-16.09,11.64-4.95-28.66-4.95,28.66-16.09-11.64,11.21,16.77-27.31,5.11,27.31,5.11-11.21,16.77,16.09-11.64,4.95,28.66,4.95-28.66,16.09,11.64-11.21-16.77ZM177.8,212.6c.98-1.5,1.55-3.3,1.55-5.24,0-1.11-.2-2.16-.54-3.15l21.91,4.1-22.92,4.29ZM162.45,207.37c0-4.5,3.51-8.15,7.83-8.15s7.83,3.65,7.83,8.15-3.51,8.15-7.83,8.15-7.83-3.65-7.83-8.15ZM186.49,191.45l-7.69,11.51-.57-.11c-.66-1.24-1.59-2.31-2.7-3.13l-.05-.3,11.02-7.97ZM174.13,198.88c-1.17-.57-2.47-.9-3.84-.9s-2.67.33-3.84.9l3.84-22.23,3.84,22.23ZM154.08,191.45l11.02,7.97-.05.3c-1.11.82-2.04,1.89-2.7,3.13l-.58.11-7.69-11.51ZM161.76,204.22c-.34.99-.54,2.04-.54,3.15,0,1.94.57,3.74,1.55,5.24l-22.92-4.29,21.91-4.1ZM154.08,225.18l7.69-11.51,2.2.41c.22.22.46.43.7.63l.43,2.49-11.02,7.97ZM166.08,215.67c1.26.68,2.68,1.08,4.2,1.08s2.94-.39,4.2-1.08l-4.2,24.31-4.2-24.31ZM175.9,214.72c.24-.2.48-.41.7-.63l2.2-.41,7.69,11.51-11.02-7.97.43-2.49Z"/>
          <path class="cls-9" d="M297.15,254.79c-3.46-5.8-10.2-9.4-16.73-8.88-.93-4.99-5.74-9.12-10.96-9.12-.68,0-1.34.07-1.99.21-1.73-9.01-10.12-16.36-19.04-16.36h-.35c-8.9.19-17.01,7.6-18.63,16.61-2.66-1.4-6.02-1.59-8.79-.45-2.91,1.2-4.64,3.54-4.75,6.24-.22-.02-.36-.02-.37-.02-.76.01-1.53.16-2.28.44-1.45.54-2.78,1.54-3.75,2.83-2.3,3.07-2.42,5.39-2.42,8.95l.02,1.42h91.16l-1.11-1.86ZM209.55,254.19c.04-2.65.29-4.23,1.92-6.42.68-.91,1.61-1.62,2.63-1.99.49-.18.99-.28,1.45-.29.25,0,1.02.09,1.2.15l2.22,1-.5-2.38c-.56-2.64,1.25-4.41,3.13-5.18.91-.38,1.9-.57,2.93-.57,1.89,0,3.7.64,5.12,1.81l1.85,1.53.16-2.4c.59-8.68,8.14-16.17,16.48-16.35h.3c8.2,0,15.89,7.15,16.81,15.63l.18,1.63,1.52-.62c.79-.32,1.64-.49,2.53-.49,4.34,0,8.46,3.85,8.65,8.08l.06,1.39,1.37-.22c.7-.12,1.42-.17,2.14-.17,4.57,0,9.09,2.25,12.05,5.87h-84.17Z"/>
          <path class="cls-9" d="M317.52,241.98c0-2.51-.09-4.15-1.71-6.31-.68-.91-1.62-1.62-2.64-2-.53-.2-1.08-.3-1.61-.31,0,0-.11,0-.26.01-.08-1.9-1.3-3.56-3.35-4.4-1.96-.81-4.32-.67-6.21.32-1.15-6.36-6.87-11.59-13.15-11.72h-.25c-6.29,0-12.22,5.19-13.44,11.55-.46-.1-.92-.15-1.4-.15-3.56,0-6.85,2.72-7.65,6.09.23.76.49,1.5.79,2.22l.72.12.04-.98c.13-2.98,3.04-5.7,6.1-5.7.62,0,1.22.12,1.78.34l1.07.44.12-1.15c.64-5.98,6.08-11.03,11.86-11.03h.21c5.89.13,11.21,5.41,11.63,11.54l.11,1.69,1.31-1.08c1-.82,2.28-1.28,3.61-1.28.72,0,1.42.13,2.06.4,1.33.55,2.6,1.79,2.21,3.66l-.36,1.68,1.57-.71c.13-.04.68-.11.85-.11.32,0,.67.07,1.02.2.71.26,1.37.76,1.85,1.41,1.16,1.55,1.33,2.66,1.36,4.53h-38.5c.22.55.38,1.17.59,1.74h39.64v-1Z"/>
          <g>
            <path class="cls-6" d="M447.43,262.43c-.57.23-1.14.46-1.72.69"/>
            <path class="cls-7" d="M442.24,264.52c-26.94,10.87-53.85,21.98-79.09,36.34-22.58,12.85-44,28.46-61.32,47.86-9.41,10.53-17.48,22.25-23.98,34.79"/>
            <path class="cls-6" d="M277,385.17c-.28.55-.55,1.1-.82,1.66"/>
          </g>
          <g>
            <path class="cls-6" d="M360.88,184.24c-.42.45-.84.91-1.24,1.37"/>
            <path class="cls-4" d="M357.32,188.55c-4.37,6-7.27,13.06-8.46,20.38-1.41,8.68,1.4,16.56.5,25.14-1.77,16.74-12.53,31.62-26.24,41.38-37.84,26.95-95.27,22.14-130.41-7.41"/>
            <path class="cls-6" d="M191.28,266.82c-.46-.41-.92-.82-1.38-1.23"/>
          </g>
          <path class="cls-4" d="M183.79,132.19c8.79,19.22,18.88,38.09,32.76,54.02,13.89,15.93,31.91,28.86,52.48,33.73"/>
          <text class="cls-11" transform="translate(316.06 165.79) scale(.96 1)"><tspan x="0" y="0">Holi</tspan><tspan x="0" y="14.41">d</tspan><tspan class="cls-14" x="10.22" y="14.41">a</tspan><tspan class="cls-13" x="18.81" y="14.41">y</tspan><tspan x="27.24" y="14.41">s</tspan></text>
          <g>
            <path class="cls-9" d="M303.7,378.25c-1.18-1.64-2.37-3.28-3.55-4.92-.28-.39-.14-.92.32-1.19.22-.12.43-.25.65-.37.47-.26,1.05-.14,1.3.25,2.59,3.96,5.17,7.91,7.76,11.87.26.39.22.89-.08,1.12-.14.11-.28.22-.42.33-.3.24-.76.12-1.04-.27-1.18-1.63-2.36-3.27-3.54-4.9-.67.48-1.34.98-1.99,1.5,1.29,1.61,2.58,3.22,3.88,4.83.31.38.33.9.05,1.18-.13.13-.26.26-.38.38-.27.28-.75.2-1.09-.17-3.34-3.79-6.69-7.59-10.03-11.38-.33-.38-.26-.95.18-1.27.21-.15.41-.3.62-.45.44-.32,1.05-.25,1.35.13,1.3,1.62,2.59,3.23,3.89,4.85.69-.54,1.4-1.04,2.12-1.53Z"/>
            <path class="cls-9" d="M306.23,374.2c-1.52-2.48-1.05-4.53,1.63-5.52,2.72-.97,4.62.08,5.61,2.58.76,1.87,1.52,3.74,2.29,5.61.63,1.56.62,2.63.35,3.49-.3.89-.92,1.41-1.53,1.74-.6.32-1.35.56-2.26.26-.86-.3-1.78-.98-2.72-2.54-1.12-1.87-2.24-3.74-3.37-5.61ZM311.43,378.79c.71,1.31,1.41,1.72,2.16,1.33.74-.38.87-1.13.25-2.48-.87-1.88-1.74-3.75-2.61-5.63-.61-1.33-1.37-1.75-2.38-1.36-1.03.4-1.15,1.22-.45,2.51,1.01,1.88,2.02,3.75,3.03,5.63Z"/>
            <path class="cls-9" d="M323.51,378.04c.08.38-.14.75-.5.83-1.29.31-2.56.69-3.81,1.14-.35.13-.74-.08-.89-.47-1.46-3.96-2.92-7.92-4.38-11.88-.15-.39.13-.8.64-.91.24-.05.48-.1.73-.15.48-.09.98.15,1.1.54,1.11,3.51,2.22,7.03,3.32,10.54.94-.28,1.88-.51,2.84-.71.39-.08.76.17.84.55.04.17.08.34.11.52Z"/>
            <path class="cls-9" d="M326.38,377.57c.05.37-.22.71-.57.76-.17.03-.34.05-.52.08-.37.06-.72-.19-.79-.56-.73-3.79-1.46-7.58-2.19-11.38-.07-.38.27-.7.78-.71.24,0,.47,0,.71-.01.48,0,.95.29,1,.66.53,3.72,1.05,7.44,1.58,11.16Z"/>
            <path class="cls-9" d="M328.45,378.03c-.37.03-.7-.23-.74-.6-.39-3.66-.77-7.32-1.16-10.98-.04-.37.33-.64.84-.61.86.05,1.71.13,2.56.23,3.02.39,4.32,1.89,4.18,4.03-.09,1.54-.18,3.08-.27,4.63-.15,2.16-1.27,3.16-3.5,3.21-.64.01-1.27.04-1.91.09ZM329.07,367.73c.15,2.82.31,5.64.46,8.47.26,0,.51,0,.77,0,1.04,0,1.48-.51,1.48-1.67,0-1.6.01-3.19.02-4.79,0-1.15-.51-1.79-1.8-1.93-.31-.03-.63-.06-.94-.09Z"/>
            <path class="cls-9" d="M339.05,375.96c-.68-.18-1.37-.34-2.05-.48-.35.77-.69,1.55-1.02,2.34-.11.23-.43.39-.71.36-.18-.02-.36-.04-.55-.06-.45-.04-.73-.4-.61-.77.39-1.14.8-2.25,1.25-3.34.84-2,1.77-3.92,2.79-5.74.13-.21.55-.29.91-.17.18.06.35.12.53.18.36.12.73.46.75.71.48,3.4.74,6.65.8,9.73,0,.35-.38.55-.82.44-.18-.05-.36-.09-.54-.14-.28-.07-.53-.33-.56-.57-.04-.82-.1-1.65-.17-2.49ZM337.7,374.04c.39.09.78.19,1.17.3-.1-.79.03-1.19-.16-2.61-.35.76-.69,1.53-1.01,2.31Z"/>
            <path class="cls-9" d="M345.51,373.97c.86-.52,1.74-.99,2.65-1.41.16-.06.59.03.83.18.24.15.48.3.71.45.58.38.77.9.42,1.04-1.49.55-2.93,1.26-4.3,2.1-.49,1.21-.98,2.43-1.47,3.64-.1.25-.47.34-.84.2-.17-.06-.34-.12-.51-.19-.35-.12-.57-.43-.48-.7.43-1.29.87-2.59,1.3-3.88-.43-1.71-.98-3.5-1.61-5.34-.17-.46.3-.68.95-.39.25.11.49.22.74.33.28.13.62.46.67.64.35,1.13.66,2.24.94,3.32Z"/>
            <path class="cls-9" d="M348,379.19c.12-.23.52-.24.89-.01.18.11.35.21.53.32.36.22.57.59.44.8-.03.04-.06.09-.08.14-.31.51-.29.84-.12,1.12.12.23.41.44.66.6.74.47,1.25.59,1.63.1.33-.43-.23-1.38-.89-2.4,0,0,0,0,0,0-.87-1.37-1.91-2.82-1.34-3.96.65-1.3,2.32-1.23,4.46.56,2.16,1.84,2.69,3.54,1.76,4.56-.03.04-.07.08-.1.12-.15.16-.55.03-.91-.28-.17-.15-.34-.3-.51-.44-.37-.31-.55-.7-.41-.89.03-.04.07-.09.1-.13.46-.61.27-1.24-.59-1.94-.82-.66-1.44-.76-1.77-.21-.32.54.38,1.62,1.02,2.68,0,0-.01,0-.02-.01.88,1.43,1.67,2.86.95,3.65-.83.91-2.22.66-4.03-.43-1.88-1.11-2.49-2.27-1.72-3.79.03-.05.05-.1.08-.15Z"/>
          </g>
          <text class="cls-11" transform="translate(97.99 261.63) scale(.96 1)"><tspan x="0" y="0">Holid</tspan><tspan class="cls-14" x="40.51" y="0">a</tspan><tspan class="cls-13" x="49.1" y="0">y</tspan><tspan x="57.53" y="0">s</tspan></text>
        </g>
        <g>
          <path class="cls-2" d="M24.86,47.2c-3.06-2.16-6.1-4.33-9.14-6.51-.24-.17-.76-.29-.5-.75.25-.45.52-.97,1.22-.8,1.76.41,3.52.78,5.28,1.17,1.83.4,3.67.8,5.49,1.22.43.1.72,0,.99-.37,3.69-5.09,7.89-9.74,11.79-14.65.59-.74.61-.75-.16-1.3-3.6-2.56-7.21-5.12-10.82-7.68-3.9-2.78-7.79-5.56-11.7-8.34-2-1.42-4.01-2.83-6.02-4.24-.18-.12-.34-.28-.52-.4-.46-.29-.4-.59-.08-.96.53-.61,1.05-1.24,1.54-1.88.31-.41.65-.5,1.13-.39,3.26.74,6.52,1.46,9.78,2.19.99.22,1.97.43,2.96.67.48.12.81-.02,1.12-.43.89-1.19,1.9-2.26,3.18-2.99.04-.02.08-.06.12-.08.66-.28,1.35-.72,2.03-.14.67.58.34,1.34.16,2.02-.2.78-.59,1.47-1.03,2.13-.29.43-.29.67.3.79,2.8.59,5.59,1.21,8.38,1.85l5.71,1.26c2.28.49,4.56,1.01,6.83,1.53.41.09.62-.12.85-.4,1.28-1.56,2.56-3.12,3.83-4.68,2.76-3.38,5.75-6.5,9.21-9.12.87-.66,1.79-1.26,2.81-1.66.66-.26,1.38-.53,1.99,0,.64.56.49,1.37.33,2.11-.46,2.05-1.45,3.85-2.47,5.64-2.45,4.3-5.53,8.1-8.74,11.78-1.08,1.23-1.41,2.23-.64,3.78.77,1.55,1.25,3.24,1.83,4.88l2.51,6.87c1.03,2.44,1.88,4.97,2.79,7.47.21.57.44.46.76.15.71-.69,1.47-1.29,2.38-1.65.48-.19.98-.32,1.44.06.48.4.46.96.34,1.51-.36,1.63-1.2,3-2.3,4.18-.6.64-.62,1.19-.31,1.99,1.56,4.09,3.05,8.2,4.58,12.3.15.4.1.71-.17,1.03-.54.64-1.08,1.28-1.59,1.94-.33.44-.6.48-.98.06-1.08-1.21-2.18-2.39-3.27-3.59-2.29-2.53-4.57-5.05-6.86-7.58-2.63-2.91-5.26-5.81-7.9-8.72-2.12-2.34-4.26-4.67-6.37-7.02-.43-.48-.61-.11-.84.17-1.84,2.24-3.68,4.48-5.52,6.72-1.59,1.94-3.17,3.89-4.78,5.81-.57.68-1.18,1.32-1.8,1.94-.4.4-.48.77-.27,1.33,1.31,3.46,2.58,6.94,3.86,10.42.1.27.24.54.09.86-.39.84-.79.93-1.42.25-2.3-2.52-4.58-5.04-6.87-7.57-.15-.16-.31-.32-.44-.49l-4.13-3.71Z"/>
          <path class="cls-3" d="M7.43,227.53c.33-2.46.66-4.34,2.1-6.39,1.33-1.9,3.32-3.28,5.31-4.2,4.27-1.99,9.52-1.95,13.55.66.24-6.27,3.98-12.25,9.38-15.04,5.4-2.79,12.24-2.25,17.18,1.34-2.02-9.45,3.63-19.64,12.02-23.84,4.49-2.24,9.73-2.95,14.66-2.43,4.84.51,9.35,3.52,12.62,7.25,4.01,4.58,5.07,10.43,4.79,16.42,5.55.78,9.11,4.94,11.05,7.55,3.71,4.98,6.86,12.84,4.37,19.07l-107.02-.39Z"/>
          <g>
            <path class="cls-5" d="M117.02,113.36h64.35s-7.25,10.97-14.28,15.77h-43.93s-4.83-5.48-6.15-15.77Z"/>
            <polyline class="cls-5" points="169.36 113.36 155.75 96.45 131.59 96.45 131.59 103.16 122.21 103.16 122.21 113.36"/>
            <g>
              <line class="cls-6" x1="153.63" y1="100.56" x2="153.63" y2="101.75"/>
              <line class="cls-6" x1="149.24" y1="100.56" x2="149.24" y2="101.75"/>
              <line class="cls-6" x1="144.84" y1="100.56" x2="144.84" y2="101.75"/>
              <line class="cls-6" x1="140.45" y1="100.56" x2="140.45" y2="101.75"/>
              <line class="cls-6" x1="136.06" y1="100.56" x2="136.06" y2="101.75"/>
            </g>
            <g>
              <line class="cls-6" x1="153.63" y1="105.87" x2="153.63" y2="107.06"/>
              <line class="cls-6" x1="149.24" y1="105.87" x2="149.24" y2="107.06"/>
              <line class="cls-6" x1="144.84" y1="105.87" x2="144.84" y2="107.06"/>
              <line class="cls-6" x1="140.45" y1="105.87" x2="140.45" y2="107.06"/>
              <line class="cls-6" x1="136.06" y1="105.87" x2="136.06" y2="107.06"/>
            </g>
            <line class="cls-6" x1="136.06" y1="96.45" x2="136.06" y2="87.31"/>
            <line class="cls-6" x1="140.45" y1="96.45" x2="140.45" y2="87.31"/>
            <g>
              <path class="cls-9" d="M162.7,119.65c0-1.07.84-1.94,1.87-1.94s1.87.87,1.87,1.94-.84,1.94-1.87,1.94-1.87-.87-1.87-1.94Z"/>
              <path class="cls-9" d="M153.91,119.65c0-1.07.84-1.94,1.87-1.94s1.87.87,1.87,1.94-.84,1.94-1.87,1.94-1.87-.87-1.87-1.94Z"/>
              <path class="cls-9" d="M145.13,119.65c0-1.07.84-1.94,1.87-1.94s1.87.87,1.87,1.94-.84,1.94-1.87,1.94-1.87-.87-1.87-1.94Z"/>
              <path class="cls-9" d="M136.34,119.65c0-1.07.84-1.94,1.87-1.94s1.87.87,1.87,1.94-.84,1.94-1.87,1.94-1.87-.87-1.87-1.94Z"/>
              <path class="cls-9" d="M127.56,119.65c0-1.07.84-1.94,1.87-1.94s1.87.87,1.87,1.94-.83,1.94-1.87,1.94-1.87-.87-1.87-1.94Z"/>
            </g>
          </g>
          <path class="cls-6" d="M159.68,48.85c-16.43,7.31-42.86,7.46-56.31-6.74-7.77-8.2,7.8-10.89,13.01-10.9,6.2,0,12.42,1.77,18.07,4.36,9.8,4.5,18.5,11.39,29.07,14.04,14.51,3.63,32.7-.6,39.3-15.84.37-.86.7-1.77.63-2.7-.07-.94-.65-1.89-1.54-2.08-.78-.16-1.54.29-2.23.71-4.6,2.86-9.46,5.37-14.66,6.69-5.39,1.37-12.37,1.71-17.44-1.04"/>
          <path class="cls-6" d="M167.51,35.36c-.22-7.03-.33-11.51-4.9-16.11-2.52-2.54-5.97-3.91-9.45-4.42-12.26-1.79-21.07,5.15-22.28,19.26"/>
          <path class="cls-6" d="M131.77,28.87c11.64-1.86,23.62-1.35,35.07,1.47"/>
          <path class="cls-6" d="M133.97,35.36c10.99-1.27,21.52-.96,33.56.12"/>
          <g>
            <g>
              <path class="cls-9" d="M13.75,150.22c-1.63-1.86-3.25-3.71-4.88-5.57-.39-.44-1.03-.68-1.46-.54-.2.06-.4.13-.6.19-.43.14-.46.6-.07,1.05,3.93,4.48,7.87,8.97,11.8,13.45.39.45,1.03.67,1.42.5.19-.08.37-.16.55-.24.39-.18.39-.68,0-1.12-1.62-1.85-3.24-3.7-4.86-5.54.74-.31,1.47-.63,2.19-.96,1.6,1.82,3.2,3.65,4.8,5.47.38.44.99.63,1.36.43.17-.1.34-.19.52-.29.37-.2.35-.72-.02-1.15-3.79-4.32-7.59-8.65-11.38-12.97-.38-.43-.99-.63-1.39-.46-.19.08-.37.16-.56.24-.4.17-.42.64-.04,1.08,1.61,1.83,3.21,3.66,4.82,5.49-.72.33-1.46.64-2.21.94Z"/>
              <path class="cls-9" d="M30.79,151.99c.34.26.83.33,1.07.13.16-.12.31-.25.47-.37.38-.31.26-.95-.23-1.36-4.32-3.49-8.72-7.07-13.19-10.73-.33-.28-.87-.37-1.14-.21-.13.08-.27.15-.4.23-.27.15-.33.59-.13.95,1.84,3.04,3.7,6.11,5.58,9.2,1.03,1.67,2.06,3.34,3.1,5.03.34.54,1,.8,1.42.53.17-.11.34-.22.5-.33.26-.17.29-.63.09-.99-.76-1.23-1.52-2.46-2.27-3.68.59-.39,1.17-.79,1.75-1.19,1.14.94,2.27,1.88,3.4,2.81ZM21.79,144.39c1.89,1.56,2.34,2.14,3.41,3.02-.32.21-.64.43-.97.64-.82-1.22-1.63-2.44-2.44-3.65Z"/>
              <path class="cls-9" d="M31.19,142.63c1.88-1.66,1.58-3.69-.6-6.18-2.19-2.5-4.11-3-6.11-1.48-.59.45-1.19.89-1.8,1.32-.34.24-.33.75.03,1.15,3.55,4.05,7.11,8.11,10.67,12.16.35.4.89.51,1.19.24.14-.13.29-.26.43-.39.29-.26.25-.81-.1-1.2-1.47-1.68-2.94-3.35-4.41-5.03.24-.2.47-.4.7-.6ZM26.2,136.94c.87-.69,1.68-.45,2.84.87,1.12,1.27,1.28,2.15.43,2.86-.24.2-.47.39-.71.59-1.1-1.25-2.19-2.5-3.29-3.75.25-.19.49-.38.73-.57Z"/>
              <path class="cls-9" d="M36.98,137.07c1.72-1.84,1.42-3.87-.65-6.23-2.08-2.37-3.88-2.74-5.72-1.04-.54.5-1.09,1-1.65,1.49-.31.27-.29.79.05,1.18,3.38,3.85,6.76,7.71,10.14,11.56.34.38.83.45,1.11.14.13-.14.26-.29.39-.43.26-.29.21-.85-.12-1.22-1.4-1.59-2.79-3.18-4.19-4.78.21-.22.43-.45.64-.67ZM32.24,131.66c.8-.77,1.56-.59,2.66.66,1.06,1.21,1.22,2.08.45,2.88-.22.22-.43.44-.65.66-1.04-1.19-2.08-2.37-3.12-3.56.22-.21.45-.42.67-.64Z"/>
              <path class="cls-9" d="M35.74,125.43c-.21-.12-.63-.06-.8.11-.15.16-.31.32-.46.47-.4.41-.24,1.1.32,1.4,2.22,1.19,4.4,2.3,6.55,3.41,1.51,1.73,3.03,3.45,4.54,5.18.31.36.77.38,1.01.06.12-.16.24-.31.35-.47.25-.34.2-.89-.11-1.24-1.49-1.69-2.97-3.39-4.46-5.08-.98-2.46-1.93-4.89-2.86-7.29-.24-.59-.84-.77-1.22-.36-.15.17-.31.34-.46.51-.15.17-.22.62-.14.87.57,1.48,1.16,2.98,1.75,4.49-1.33-.67-2.66-1.35-4.02-2.05Z"/>
              <path class="cls-9" d="M48.29,120c-1.21-1.37-2.41-2.75-3.62-4.12-.29-.33-.73-.34-1.01-.02-.13.15-.25.29-.38.44-.27.31-.26.83.04,1.16,2.93,3.34,5.85,6.67,8.78,10.01.29.33.72.32.96-.03.11-.16.23-.33.34-.49.24-.35.2-.89-.08-1.22-1.2-1.37-2.4-2.74-3.6-4.11.47-.62.94-1.24,1.41-1.86,1.18,1.35,2.36,2.69,3.54,4.04.28.32.7.3.94-.05.11-.16.22-.33.34-.49.24-.35.21-.88-.07-1.2-2.79-3.18-5.57-6.35-8.36-9.53-.28-.32-.72-.32-.99,0-.13.15-.25.29-.38.44-.27.31-.26.82.02,1.15,1.19,1.35,2.37,2.7,3.55,4.05-.48.61-.95,1.22-1.43,1.83Z"/>
              <path class="cls-9" d="M54.68,118.12c1.08,1.23,1.98,1.58,2.78,1.52.84-.08,1.45-.69,1.89-1.31.45-.64.86-1.49.85-2.53-.02-.99-.35-2.02-1.38-3.19-1.22-1.39-2.44-2.79-3.67-4.18-1.64-1.87-3.27-2.05-4.79-.34-1.5,1.69-1.29,3.64.44,5.61,1.29,1.47,2.58,2.94,3.87,4.42ZM52.12,112.08c-.88-1-1.03-1.79-.43-2.49.58-.68,1.25-.57,2.13.43,1.24,1.42,2.49,2.83,3.73,4.25.9,1.02,1,1.83.48,2.54-.53.73-1.21.62-2.1-.39-1.27-1.45-2.54-2.9-3.81-4.35Z"/>
              <path class="cls-9" d="M65.1,108.67c-.24-.28-.65-.24-.91.08-.65.8-1.3,1.62-1.94,2.44-2.26-2.57-4.52-5.15-6.78-7.72-.25-.29-.68-.28-.95.01-.14.15-.27.29-.41.44-.28.3-.3.78-.04,1.07,2.57,2.93,5.13,5.85,7.7,8.78.26.29.66.25.91-.09.89-1.2,1.79-2.38,2.71-3.55.26-.33.27-.81.03-1.09-.11-.12-.22-.25-.33-.37Z"/>
              <path class="cls-9" d="M60.36,98.49c-.24-.27-.68-.24-.96.03-.14.13-.28.27-.41.4-.3.29-.34.74-.1,1.01,2.42,2.75,4.83,5.51,7.25,8.26.24.27.64.23.91-.09.12-.15.25-.3.37-.45.25-.3.29-.79.06-1.06-2.37-2.7-4.74-5.4-7.11-8.1Z"/>
              <path class="cls-9" d="M70.74,103.84c1.68-1.82,1.78-3.46.36-5.08-1.01-1.16-2.03-2.31-3.04-3.47-1.41-1.61-3.08-1.77-4.96-.17-.53.46-1.05.92-1.57,1.39-.31.28-.36.71-.13.98,2.34,2.67,4.68,5.33,7.01,8,.23.27.64.23.91-.08.47-.53.94-1.05,1.41-1.57ZM64.22,96.41c.82-.72,1.52-.61,2.27.24,1.04,1.18,2.07,2.36,3.11,3.54.75.85.78,1.58.03,2.37-.19.19-.37.39-.55.58-1.81-2.07-3.63-4.13-5.44-6.2.2-.18.4-.36.6-.54Z"/>
              <path class="cls-9" d="M77.42,96.9c.22.12.61.07.85-.12.16-.12.31-.25.47-.37.39-.3.44-.74.13-.95-2.78-1.73-5.6-3.52-8.47-5.36-.21-.14-.64-.1-.89.08-.12.09-.25.17-.37.26-.25.18-.39.53-.3.76.87,1.94,1.78,3.91,2.71,5.93.51,1.09,1.04,2.18,1.57,3.29.18.36.63.37.99.03.14-.14.29-.27.43-.41.22-.21.33-.59.23-.83-.38-.79-.75-1.58-1.12-2.37.53-.45,1.07-.89,1.62-1.33.72.47,1.44.94,2.16,1.4ZM71.73,93.06c1.2.78,1.45,1.12,2.13,1.55-.3.24-.61.47-.9.72-.41-.76-.82-1.52-1.23-2.27Z"/>
              <path class="cls-9" d="M73.52,87.99c-.17-.07-.59-.02-.8.11-.19.11-.38.23-.57.35-.5.31-.52.78-.08.95,1.77.68,3.54,1.32,5.28,1.96.95,1.09,1.91,2.17,2.86,3.26.2.22.62.21.95-.02.16-.11.32-.22.48-.33.34-.23.46-.6.27-.82-.93-1.06-1.86-2.12-2.79-3.17-.19-1.56-.34-3.08-.45-4.54-.04-.36-.59-.48-1.11-.23-.21.1-.42.2-.63.31-.21.1-.43.38-.42.54.09.93.19,1.88.31,2.85-1.09-.4-2.18-.8-3.28-1.21Z"/>
              <path class="cls-9" d="M82.97,90.16c1.24,1.41,2.8,1.48,4.88.42,2.02-1.01,2.71-2.06,1.75-3.15-.83-.95-2.66-.94-4.44-.91,0,0,.01,0,.02,0-1.32.02-2.64.05-3.1-.48-.47-.54-.23-.98.62-1.31.9-.35,1.6-.2,2.18.46.04.05.08.09.12.14.18.2.64.23,1.06.08.19-.07.39-.14.58-.21.42-.15.62-.42.44-.62-.04-.04-.08-.09-.12-.14-1.08-1.23-2.93-1.56-5.16-.74-2.18.82-2.7,2.07-1.64,3.27.93,1.06,2.73.97,4.49.91,0,0,0,0,0,0,1.3-.05,2.54-.06,2.96.41.47.53.17.91-.64,1.3-.27.13-.61.27-.92.26-.37,0-.75-.14-1.19-.64-.04-.04-.08-.09-.12-.14-.18-.21-.65-.21-1.01-.03-.18.09-.35.18-.53.27-.38.2-.52.53-.34.74.04.05.08.09.12.14Z"/>
            </g>
            <path class="cls-9" d="M78.6,82.35l-7.13-3.78c-.56-.3-.78-1-.48-1.57.3-.56,1-.78,1.57-.48.1.05.19.12.27.2l5.78,5.63Z"/>
            <path class="cls-9" d="M83.43,79.24l-4.1-9.42c-.25-.58.01-1.27.6-1.52.58-.25,1.26.01,1.52.6.03.08.06.16.08.25l1.91,10.1Z"/>
            <path class="cls-9" d="M87.77,80.25l4.57-9.12c.29-.57.98-.8,1.55-.51.57.29.8.98.51,1.55-.04.08-.09.15-.14.22l-6.49,7.87Z"/>
          </g>
          <g>
            <path class="cls-6" d="M109.93,132c-.57.23-1.14.46-1.72.69"/>
            <path class="cls-7" d="M104.74,134.09c-26.94,10.87-53.85,21.98-79.09,36.34-22.58,12.85-44,28.46-61.32,47.86-9.41,10.53-17.48,22.25-23.98,34.79"/>
          </g>
          <g>
            <path class="cls-6" d="M23.38,53.81c-.42.45-.84.91-1.24,1.37"/>
            <path class="cls-4" d="M19.82,58.12c-4.37,6-7.27,13.06-8.46,20.38-1.41,8.68,1.4,16.56.5,25.14-1.77,16.74-12.53,31.62-26.24,41.38-37.84,26.95-95.27,22.14-130.41-7.41"/>
          </g>
          <text class="cls-11" transform="translate(-21.44 35.36) scale(.96 1)"><tspan x="0" y="0">Holi</tspan><tspan x="0" y="14.41">d</tspan><tspan class="cls-14" x="10.22" y="14.41">a</tspan><tspan class="cls-13" x="18.81" y="14.41">y</tspan><tspan x="27.24" y="14.41">s</tspan></text>
          <g>
            <path class="cls-9" d="M1.55,245.53c-.68-.18-1.37-.34-2.05-.48-.35.77-.69,1.55-1.02,2.34-.11.23-.43.39-.71.36-.18-.02-.36-.04-.55-.06-.45-.04-.73-.4-.61-.77.39-1.14.8-2.25,1.25-3.34.84-2,1.77-3.92,2.79-5.74.13-.21.55-.29.91-.17.18.06.35.12.53.18.36.12.73.46.75.71.48,3.4.74,6.65.8,9.73,0,.35-.38.55-.82.44-.18-.05-.36-.09-.54-.14-.28-.07-.53-.33-.56-.57-.04-.82-.1-1.65-.17-2.49ZM.2,243.61c.39.09.78.19,1.17.3-.1-.79.03-1.19-.16-2.61-.35.76-.69,1.53-1.01,2.31Z"/>
            <path class="cls-9" d="M8.01,243.54c.86-.52,1.74-.99,2.65-1.41.16-.06.59.03.83.18.24.15.48.3.71.45.58.38.77.9.42,1.04-1.49.55-2.93,1.26-4.3,2.1-.49,1.21-.98,2.43-1.47,3.64-.1.25-.47.34-.84.2-.17-.06-.34-.12-.51-.19-.35-.12-.57-.43-.48-.7.43-1.29.87-2.59,1.3-3.88-.43-1.71-.98-3.5-1.61-5.34-.17-.46.3-.68.95-.39.25.11.49.22.74.33.28.13.62.46.67.64.35,1.13.66,2.24.94,3.32Z"/>
            <path class="cls-9" d="M10.5,248.76c.12-.23.52-.24.89-.01.18.11.35.21.53.32.36.22.57.59.44.8-.03.04-.06.09-.08.14-.31.51-.29.84-.12,1.12.12.23.41.44.66.6.74.47,1.25.59,1.63.1.33-.43-.23-1.38-.89-2.4,0,0,0,0,0,0-.87-1.37-1.91-2.82-1.34-3.96.65-1.3,2.32-1.23,4.46.56,2.16,1.84,2.69,3.54,1.76,4.56-.03.04-.07.08-.1.12-.15.16-.55.03-.91-.28-.17-.15-.34-.3-.51-.44-.37-.31-.55-.7-.41-.89.03-.04.07-.09.1-.13.46-.61.27-1.24-.59-1.94-.82-.66-1.44-.76-1.77-.21-.32.54.38,1.62,1.02,2.68,0,0-.01,0-.02-.01.88,1.43,1.67,2.86.95,3.65-.83.91-2.22.66-4.03-.43-1.88-1.11-2.49-2.27-1.72-3.79.03-.05.05-.1.08-.15Z"/>
          </g>
        </g>
        <g>
          <g>
            <path class="cls-3" d="M268.24,91.38l-55.73,25.64c-2.19,1.01-4.82.04-5.83-2.15l-16.66-36.21c-1.01-2.2-.04-4.82,2.15-5.83l55.73-25.64c2.19-1.01,4.82-.04,5.83,2.15l16.66,36.21c1.01,2.19.04,4.82-2.15,5.83Z"/>
            <g>
              <g>
                <line class="cls-3" x1="197.32" y1="70.48" x2="217.65" y2="114.66"/>
                <line class="cls-3" x1="201.79" y1="68.42" x2="222.12" y2="112.61"/>
              </g>
              <g>
                <line class="cls-3" x1="238.3" y1="51.62" x2="258.63" y2="95.8"/>
                <line class="cls-3" x1="242.77" y1="49.56" x2="263.1" y2="93.75"/>
              </g>
            </g>
            <path class="cls-3" d="M228.15,56.29l-2.23-4.85c-1.03-2.24-3.63-3.26-5.78-2.27l-8.38,3.86c-2.15.99-3.07,3.63-2.04,5.87l2.23,4.84"/>
          </g>
          <g>
            <path class="cls-3" d="M285.03,48.98c-1.29,3.12-6.81,5.21-10.87,3.31-4.05-1.9-5.1-7.07-3.81-10.19,1.29-3.12,5.04-2.72,9.09-.82,4.05,1.9,6.87,4.58,5.59,7.7Z"/>
            <path class="cls-3" d="M289.48,51.06c-1.28,3.12,1.02,8.88,5.07,10.78,4.05,1.9,8.33-.78,9.61-3.9,1.29-3.12-1.53-5.8-5.59-7.7-4.05-1.9-7.81-2.3-9.09.82Z"/>
            <path class="cls-8" d="M284.77,49.49s3.43-2.43,4.52,2.12"/>
            <line class="cls-3" x1="270.35" y1="42.1" x2="268.63" y2="41.29"/>
            <line class="cls-3" x1="305.88" y1="58.75" x2="304.16" y2="57.94"/>
            <line class="cls-8" x1="284.21" y1="44.63" x2="293.11" y2="48.8"/>
          </g>
          <path class="cls-3" d="M344.93,97.1c.33-2.46.66-4.34,2.1-6.39,1.33-1.9,3.32-3.28,5.31-4.2,4.27-1.99,9.52-1.95,13.55.66.24-6.27,3.98-12.25,9.38-15.04s12.24-2.25,17.18,1.34c-2.02-9.45,3.63-19.64,12.02-23.84,4.49-2.24,9.73-2.95,14.66-2.43,4.84.51,9.35,3.52,12.62,7.25,4.01,4.58,5.07,10.43,4.79,16.42,5.55.78,9.11,4.94,11.05,7.55,3.71,4.98,6.86,12.84,4.37,19.07l-107.02-.39Z"/>
          <g>
            <path class="cls-9" d="M351.25,19.79c-1.63-1.86-3.25-3.71-4.88-5.57-.39-.44-1.03-.68-1.46-.54-.2.06-.4.13-.6.19-.43.14-.46.6-.07,1.05,3.93,4.48,7.87,8.97,11.8,13.45.39.45,1.03.67,1.42.5.19-.08.37-.16.55-.24.39-.18.39-.68,0-1.12-1.62-1.85-3.24-3.7-4.86-5.54.74-.31,1.47-.63,2.19-.96,1.6,1.82,3.2,3.65,4.8,5.47.38.44.99.63,1.36.43.17-.1.34-.19.52-.29.37-.21.35-.72-.02-1.15-3.79-4.32-7.59-8.65-11.38-12.97-.38-.43-.99-.63-1.39-.46-.19.08-.37.16-.56.24-.4.17-.42.64-.04,1.08,1.61,1.83,3.21,3.66,4.82,5.49-.72.33-1.46.64-2.21.94Z"/>
            <path class="cls-9" d="M368.29,21.56c.34.26.83.33,1.07.13.16-.12.31-.25.47-.37.38-.31.26-.95-.23-1.36-4.32-3.49-8.72-7.07-13.19-10.73-.33-.28-.87-.37-1.14-.21-.13.08-.27.15-.4.23-.27.15-.33.59-.13.95,1.84,3.04,3.7,6.11,5.58,9.2,1.03,1.67,2.06,3.34,3.1,5.03.34.54,1,.8,1.42.53.17-.11.34-.22.5-.33.26-.17.29-.63.09-.99-.76-1.23-1.52-2.46-2.27-3.68.59-.39,1.17-.79,1.75-1.19,1.14.94,2.27,1.88,3.4,2.81ZM359.29,13.96c1.89,1.56,2.34,2.14,3.41,3.02-.32.21-.64.43-.97.64-.82-1.22-1.63-2.44-2.44-3.65Z"/>
            <path class="cls-9" d="M368.69,12.2c1.88-1.66,1.58-3.69-.6-6.18-2.19-2.5-4.11-3-6.11-1.48-.59.45-1.19.89-1.8,1.32-.34.24-.33.75.03,1.15,3.55,4.05,7.11,8.11,10.67,12.16.35.4.89.51,1.19.24.14-.13.29-.26.43-.39.29-.26.25-.81-.1-1.2-1.47-1.68-2.94-3.35-4.41-5.03.24-.2.47-.4.7-.6ZM363.7,6.51c.87-.69,1.68-.45,2.84.87,1.12,1.27,1.28,2.15.43,2.86-.24.2-.47.39-.71.59-1.1-1.25-2.19-2.5-3.29-3.75.25-.19.49-.38.73-.57Z"/>
            <path class="cls-9" d="M374.48,6.64c1.72-1.84,1.42-3.87-.65-6.23-2.08-2.37-3.88-2.74-5.72-1.04-.54.5-1.09,1-1.65,1.49-.31.27-.29.79.05,1.18,3.38,3.85,6.76,7.71,10.14,11.56.34.38.83.45,1.11.14.13-.14.26-.29.39-.43.26-.3.21-.85-.12-1.22-1.4-1.59-2.79-3.18-4.19-4.78.21-.22.43-.45.64-.67ZM369.74,1.23c.8-.77,1.56-.59,2.66.66,1.06,1.21,1.22,2.08.45,2.88-.22.22-.43.44-.65.66-1.04-1.19-2.08-2.37-3.12-3.56.22-.21.45-.42.67-.64Z"/>
            <path class="cls-9" d="M373.24-5c-.21-.12-.63-.06-.8.11-.15.16-.31.32-.46.47-.4.41-.24,1.1.32,1.4,2.22,1.19,4.4,2.3,6.55,3.41,1.51,1.73,3.03,3.45,4.54,5.18.31.36.77.38,1.01.06.12-.16.24-.31.35-.47.25-.34.2-.89-.11-1.24-1.49-1.69-2.97-3.39-4.46-5.08-.98-2.46-1.93-4.89-2.86-7.29-.24-.59-.84-.77-1.22-.36-.15.17-.31.34-.46.51-.15.17-.22.62-.14.87.57,1.48,1.16,2.98,1.75,4.49-1.33-.67-2.66-1.35-4.02-2.05Z"/>
          </g>
          <text class="cls-10" transform="translate(167.16 .47) scale(.96 1)"><tspan x="0" y="0">s</tspan></text>
          <g>
            <path class="cls-6" d="M447.43,1.58c-.57.23-1.14.46-1.72.69"/>
            <path class="cls-7" d="M442.24,3.67c-26.94,10.87-53.85,21.98-79.09,36.34-22.58,12.85-44,28.46-61.32,47.86-9.41,10.53-17.48,22.25-23.98,34.79"/>
            <path class="cls-6" d="M277,124.32c-.28.55-.55,1.1-.82,1.66"/>
          </g>
          <g>
            <path class="cls-4" d="M357.32-72.31c-4.37,6-7.27,13.06-8.46,20.38-1.41,8.68,1.4,16.56.5,25.14-1.77,16.74-12.53,31.62-26.24,41.38-37.84,26.95-95.27,22.14-130.41-7.41"/>
            <path class="cls-6" d="M191.28,5.96c-.46-.41-.92-.82-1.38-1.23"/>
          </g>
          <g>
            <path class="cls-9" d="M303.7,117.39c-1.18-1.64-2.37-3.28-3.55-4.92-.28-.39-.14-.92.32-1.19.22-.12.43-.25.65-.37.47-.26,1.05-.14,1.3.25,2.59,3.96,5.17,7.91,7.76,11.87.26.39.22.89-.08,1.12-.14.11-.28.22-.42.33-.3.24-.76.12-1.04-.27-1.18-1.63-2.36-3.27-3.54-4.9-.67.48-1.34.98-1.99,1.5,1.29,1.61,2.58,3.22,3.88,4.83.31.38.33.9.05,1.18-.13.13-.26.26-.38.38-.27.28-.75.2-1.09-.17-3.34-3.79-6.69-7.59-10.03-11.38-.33-.38-.26-.95.18-1.27.21-.15.41-.3.62-.45.44-.32,1.05-.25,1.35.13,1.3,1.62,2.59,3.23,3.89,4.85.69-.54,1.4-1.04,2.12-1.53Z"/>
            <path class="cls-9" d="M306.23,113.34c-1.52-2.48-1.05-4.53,1.63-5.52,2.72-.97,4.62.08,5.61,2.58.76,1.87,1.52,3.74,2.29,5.61.63,1.56.62,2.63.35,3.49-.3.89-.92,1.41-1.53,1.74-.6.32-1.35.56-2.26.26-.86-.3-1.78-.98-2.72-2.54-1.12-1.87-2.24-3.74-3.37-5.61ZM311.43,117.94c.71,1.31,1.41,1.72,2.16,1.33.74-.38.87-1.13.25-2.48-.87-1.88-1.74-3.75-2.61-5.63-.61-1.33-1.37-1.75-2.38-1.36-1.03.4-1.15,1.22-.45,2.51,1.01,1.88,2.02,3.75,3.03,5.63Z"/>
            <path class="cls-9" d="M323.51,117.19c.08.38-.14.75-.5.83-1.29.31-2.56.69-3.81,1.14-.35.13-.74-.08-.89-.47-1.46-3.96-2.92-7.92-4.38-11.88-.15-.39.13-.8.64-.91.24-.05.48-.1.73-.15.48-.09.98.15,1.1.54,1.11,3.51,2.22,7.03,3.32,10.54.94-.28,1.88-.51,2.84-.71.39-.08.76.17.84.55.04.17.08.34.11.52Z"/>
            <path class="cls-9" d="M326.38,116.71c.05.37-.22.71-.57.76-.17.03-.34.05-.52.08-.37.06-.72-.19-.79-.56-.73-3.79-1.46-7.58-2.19-11.38-.07-.38.27-.7.78-.71.24,0,.47,0,.71-.01.48,0,.95.29,1,.66.53,3.72,1.05,7.44,1.58,11.16Z"/>
            <path class="cls-9" d="M328.45,117.18c-.37.03-.7-.23-.74-.6-.39-3.66-.77-7.32-1.16-10.98-.04-.37.33-.64.84-.61.86.05,1.71.13,2.56.23,3.02.39,4.32,1.89,4.18,4.03-.09,1.54-.18,3.08-.27,4.63-.15,2.16-1.27,3.16-3.5,3.21-.64.01-1.27.04-1.91.09ZM329.07,106.88c.15,2.82.31,5.64.46,8.47.26,0,.51,0,.77,0,1.04,0,1.48-.51,1.48-1.67,0-1.6.01-3.19.02-4.79,0-1.15-.51-1.79-1.8-1.93-.31-.03-.63-.06-.94-.09Z"/>
            <path class="cls-9" d="M339.05,115.1c-.68-.18-1.37-.34-2.05-.48-.35.77-.69,1.55-1.02,2.34-.11.23-.43.39-.71.36-.18-.02-.36-.04-.55-.06-.45-.04-.73-.4-.61-.77.39-1.14.8-2.25,1.25-3.34.84-2,1.77-3.92,2.79-5.74.13-.21.55-.29.91-.17.18.06.35.12.53.18.36.12.73.46.75.71.48,3.4.74,6.65.8,9.73,0,.35-.38.55-.82.44-.18-.05-.36-.09-.54-.14-.28-.07-.53-.33-.56-.57-.04-.82-.1-1.65-.17-2.49ZM337.7,113.18c.39.09.78.19,1.17.3-.1-.79.03-1.19-.16-2.61-.35.76-.69,1.53-1.01,2.31Z"/>
            <path class="cls-9" d="M345.51,113.11c.86-.52,1.74-.99,2.65-1.41.16-.06.59.03.83.18.24.15.48.3.71.45.58.38.77.9.42,1.04-1.49.55-2.93,1.26-4.3,2.1-.49,1.21-.98,2.43-1.47,3.64-.1.25-.47.34-.84.2-.17-.06-.34-.12-.51-.19-.35-.12-.57-.43-.48-.7.43-1.29.87-2.59,1.3-3.88-.43-1.71-.98-3.5-1.61-5.34-.17-.46.3-.68.95-.39.25.11.49.22.74.33.28.13.62.46.67.64.35,1.13.66,2.24.94,3.32Z"/>
            <path class="cls-9" d="M348,118.33c.12-.23.52-.24.89-.01.18.11.35.21.53.32.36.22.57.59.44.8-.03.04-.06.09-.08.14-.31.51-.29.84-.12,1.12.12.23.41.44.66.6.74.47,1.25.59,1.63.1.33-.43-.23-1.38-.89-2.4,0,0,0,0,0,0-.87-1.37-1.91-2.82-1.34-3.96.65-1.3,2.32-1.23,4.46.56,2.16,1.84,2.69,3.54,1.76,4.56-.03.04-.07.08-.1.12-.15.16-.55.03-.91-.28-.17-.15-.34-.3-.51-.44-.37-.31-.55-.7-.41-.89.03-.04.07-.09.1-.13.46-.61.27-1.24-.59-1.94-.82-.66-1.44-.76-1.77-.21-.32.54.38,1.62,1.02,2.68,0,0-.01,0-.02-.01.88,1.43,1.67,2.86.95,3.65-.83.91-2.22.66-4.03-.43-1.88-1.11-2.49-2.27-1.72-3.79.03-.05.05-.1.08-.15Z"/>
          </g>
          <text class="cls-11" transform="translate(97.99 .77) scale(.96 1)"><tspan x="0" y="0">Holid</tspan><tspan class="cls-14" x="40.51" y="0">a</tspan><tspan class="cls-13" x="49.1" y="0">y</tspan><tspan x="57.53" y="0">s</tspan></text>
        </g>
      </g>
    </pattern>
  </defs>
  <polygon class="cls-12" points="1919.99 1083.62 0 1080 2.04 0 1922.03 3.62 1919.99 1083.62"/>
</svg>